G75*
G70*
%OFA0B0*%
%FSLAX24Y24*%
%IPPOS*%
%LPD*%
%AMOC8*
5,1,8,0,0,1.08239X$1,22.5*
%
%ADD10C,0.0000*%
%ADD11C,0.0080*%
%ADD12R,0.2047X0.0384*%
%ADD13C,0.0060*%
%ADD14C,0.0100*%
%ADD15C,0.0040*%
D10*
X000151Y000151D02*
X000151Y009151D01*
X011151Y009151D01*
X011151Y000151D01*
X000151Y000151D01*
D11*
X005128Y004655D02*
X005128Y007647D01*
X007175Y007647D02*
X007175Y004655D01*
X005128Y004655D01*
D12*
X006151Y007495D03*
D13*
X006121Y008556D02*
X006121Y008896D01*
X005951Y008896D01*
X005894Y008840D01*
X005894Y008726D01*
X005951Y008670D01*
X006121Y008670D01*
X006008Y008670D02*
X005894Y008556D01*
X005753Y008556D02*
X005526Y008556D01*
X005639Y008556D02*
X005639Y008896D01*
X005753Y008783D01*
X005246Y008783D02*
X005133Y008896D01*
X005133Y008556D01*
X005246Y008556D02*
X005019Y008556D01*
X004878Y008556D02*
X004878Y008896D01*
X004821Y008726D02*
X004651Y008556D01*
X004878Y008670D02*
X004651Y008896D01*
X003246Y008896D02*
X003019Y008896D01*
X003133Y008896D02*
X003133Y008556D01*
X002878Y008556D02*
X002651Y008556D01*
X002764Y008556D02*
X002764Y008896D01*
X002878Y008783D01*
X003543Y007427D02*
X003543Y007087D01*
X003656Y007087D02*
X003429Y007087D01*
X003656Y007314D02*
X003543Y007427D01*
X003797Y007371D02*
X003854Y007427D01*
X003968Y007427D01*
X004024Y007371D01*
X004024Y007144D01*
X003968Y007087D01*
X003854Y007087D01*
X003797Y007144D01*
X004156Y007087D02*
X004270Y007087D01*
X004213Y007087D02*
X004213Y007427D01*
X004270Y007427D02*
X004156Y007427D01*
X005114Y004846D02*
X005058Y004790D01*
X005058Y004733D01*
X005114Y004676D01*
X005058Y004620D01*
X005058Y004563D01*
X005114Y004506D01*
X005228Y004506D01*
X005285Y004563D01*
X005171Y004676D02*
X005114Y004676D01*
X005228Y004846D02*
X005285Y004790D01*
X005228Y004846D02*
X005114Y004846D01*
X005426Y004846D02*
X005539Y004846D01*
X005483Y004846D02*
X005483Y004563D01*
X005539Y004506D01*
X005596Y004506D01*
X005653Y004563D01*
X005794Y004563D02*
X005851Y004506D01*
X005964Y004506D01*
X006021Y004563D01*
X005964Y004676D02*
X005851Y004676D01*
X005794Y004620D01*
X005794Y004563D01*
X005964Y004676D02*
X006021Y004733D01*
X006021Y004790D01*
X005964Y004846D01*
X005851Y004846D01*
X005794Y004790D01*
X006183Y004790D02*
X006183Y004733D01*
X006410Y004506D01*
X006183Y004506D01*
X006351Y004301D02*
X006951Y004301D01*
X006968Y004299D01*
X006985Y004295D01*
X007001Y004288D01*
X007015Y004278D01*
X007028Y004265D01*
X007038Y004251D01*
X007045Y004235D01*
X007049Y004218D01*
X007051Y004201D01*
X007051Y003101D01*
X007049Y003084D01*
X007045Y003067D01*
X007038Y003051D01*
X007028Y003037D01*
X007015Y003024D01*
X007001Y003014D01*
X006985Y003007D01*
X006968Y003003D01*
X006951Y003001D01*
X006351Y003001D01*
X006334Y003003D01*
X006317Y003007D01*
X006301Y003014D01*
X006287Y003024D01*
X006274Y003037D01*
X006264Y003051D01*
X006257Y003067D01*
X006253Y003084D01*
X006251Y003101D01*
X006251Y004201D01*
X006253Y004218D01*
X006257Y004235D01*
X006264Y004251D01*
X006274Y004265D01*
X006287Y004278D01*
X006301Y004288D01*
X006317Y004295D01*
X006334Y004299D01*
X006351Y004301D01*
X006608Y004563D02*
X006664Y004506D01*
X006721Y004506D01*
X006778Y004563D01*
X006608Y004563D02*
X006608Y004846D01*
X006664Y004846D02*
X006551Y004846D01*
X006410Y004790D02*
X006353Y004846D01*
X006239Y004846D01*
X006183Y004790D01*
X005951Y004301D02*
X005351Y004301D01*
X005334Y004299D01*
X005317Y004295D01*
X005301Y004288D01*
X005287Y004278D01*
X005274Y004265D01*
X005264Y004251D01*
X005257Y004235D01*
X005253Y004218D01*
X005251Y004201D01*
X005251Y003101D01*
X005253Y003084D01*
X005257Y003067D01*
X005264Y003051D01*
X005274Y003037D01*
X005287Y003024D01*
X005301Y003014D01*
X005317Y003007D01*
X005334Y003003D01*
X005351Y003001D01*
X005951Y003001D01*
X005968Y003003D01*
X005985Y003007D01*
X006001Y003014D01*
X006015Y003024D01*
X006028Y003037D01*
X006038Y003051D01*
X006045Y003067D01*
X006049Y003084D01*
X006051Y003101D01*
X006051Y004201D01*
X006049Y004218D01*
X006045Y004235D01*
X006038Y004251D01*
X006028Y004265D01*
X006015Y004278D01*
X006001Y004288D01*
X005985Y004295D01*
X005968Y004299D01*
X005951Y004301D01*
X006919Y004563D02*
X006976Y004506D01*
X007089Y004506D01*
X007146Y004563D01*
X007089Y004676D02*
X006976Y004676D01*
X006919Y004620D01*
X006919Y004563D01*
X007089Y004676D02*
X007146Y004733D01*
X007146Y004790D01*
X007089Y004846D01*
X006976Y004846D01*
X006919Y004790D01*
X007308Y004506D02*
X007535Y004506D01*
X007421Y004506D02*
X007421Y004846D01*
X007535Y004733D01*
X007676Y004846D02*
X007789Y004846D01*
X007733Y004846D02*
X007733Y004563D01*
X007789Y004506D01*
X007846Y004506D01*
X007903Y004563D01*
X008044Y004563D02*
X008101Y004506D01*
X008214Y004506D01*
X008271Y004563D01*
X008214Y004676D02*
X008101Y004676D01*
X008044Y004620D01*
X008044Y004563D01*
X008214Y004676D02*
X008271Y004733D01*
X008271Y004790D01*
X008214Y004846D01*
X008101Y004846D01*
X008044Y004790D01*
X007951Y004301D02*
X007351Y004301D01*
X007334Y004299D01*
X007317Y004295D01*
X007301Y004288D01*
X007287Y004278D01*
X007274Y004265D01*
X007264Y004251D01*
X007257Y004235D01*
X007253Y004218D01*
X007251Y004201D01*
X007251Y003101D01*
X007253Y003084D01*
X007257Y003067D01*
X007264Y003051D01*
X007274Y003037D01*
X007287Y003024D01*
X007301Y003014D01*
X007317Y003007D01*
X007334Y003003D01*
X007351Y003001D01*
X007951Y003001D01*
X007968Y003003D01*
X007985Y003007D01*
X008001Y003014D01*
X008015Y003024D01*
X008028Y003037D01*
X008038Y003051D01*
X008045Y003067D01*
X008049Y003084D01*
X008051Y003101D01*
X008051Y004201D01*
X008049Y004218D01*
X008045Y004235D01*
X008038Y004251D01*
X008028Y004265D01*
X008015Y004278D01*
X008001Y004288D01*
X007985Y004295D01*
X007968Y004299D01*
X007951Y004301D01*
X004371Y004396D02*
X004371Y004056D01*
X004371Y004170D02*
X004201Y004170D01*
X004144Y004226D01*
X004144Y004340D01*
X004201Y004396D01*
X004371Y004396D01*
X004258Y004170D02*
X004144Y004056D01*
X004003Y004113D02*
X003946Y004056D01*
X003833Y004056D01*
X003776Y004113D01*
X003776Y004226D01*
X003833Y004283D01*
X003889Y004283D01*
X004003Y004226D01*
X004003Y004396D01*
X003776Y004396D01*
X003833Y003896D02*
X003776Y003840D01*
X004003Y003613D01*
X003946Y003556D01*
X003833Y003556D01*
X003776Y003613D01*
X003776Y003840D01*
X003833Y003896D02*
X003946Y003896D01*
X004003Y003840D01*
X004003Y003613D01*
X004144Y003556D02*
X004371Y003556D01*
X004258Y003556D02*
X004258Y003896D01*
X004371Y003783D01*
X003635Y003896D02*
X003635Y003556D01*
X003635Y003670D02*
X003408Y003896D01*
X003578Y003726D02*
X003408Y003556D01*
X004931Y001395D02*
X005101Y001224D01*
X005045Y001168D02*
X005271Y001395D01*
X005271Y001168D02*
X004931Y001168D01*
X004988Y001026D02*
X004931Y000970D01*
X004931Y000856D01*
X004988Y000799D01*
X005215Y001026D01*
X004988Y001026D01*
X005215Y001026D02*
X005271Y000970D01*
X005271Y000856D01*
X005215Y000799D01*
X004988Y000799D01*
X004931Y000658D02*
X004931Y000431D01*
X004931Y000545D02*
X005271Y000545D01*
X005158Y000431D01*
X005431Y000431D02*
X005771Y000431D01*
X005771Y000601D01*
X005715Y000658D01*
X005601Y000658D01*
X005545Y000601D01*
X005545Y000431D01*
X005545Y000545D02*
X005431Y000658D01*
X005431Y000799D02*
X005658Y001026D01*
X005715Y001026D01*
X005771Y000970D01*
X005771Y000856D01*
X005715Y000799D01*
X005431Y000799D02*
X005431Y001026D01*
X006431Y000970D02*
X006431Y000856D01*
X006488Y000799D01*
X006431Y000658D02*
X006545Y000545D01*
X006545Y000601D02*
X006545Y000431D01*
X006431Y000431D02*
X006771Y000431D01*
X006771Y000601D01*
X006715Y000658D01*
X006601Y000658D01*
X006545Y000601D01*
X006715Y000799D02*
X006771Y000856D01*
X006771Y000970D01*
X006715Y001026D01*
X006658Y001026D01*
X006601Y000970D01*
X006545Y001026D01*
X006488Y001026D01*
X006431Y000970D01*
X006601Y000970D02*
X006601Y000913D01*
X007431Y000970D02*
X007771Y000970D01*
X007601Y000799D01*
X007601Y001026D01*
X007601Y000658D02*
X007545Y000601D01*
X007545Y000431D01*
X007545Y000545D02*
X007431Y000658D01*
X007601Y000658D02*
X007715Y000658D01*
X007771Y000601D01*
X007771Y000431D01*
X007431Y000431D01*
X009763Y000406D02*
X009763Y000633D01*
X009989Y000633D02*
X009989Y000463D01*
X009933Y000406D01*
X009763Y000406D01*
X010131Y000463D02*
X010131Y000690D01*
X010358Y000463D01*
X010301Y000406D01*
X010188Y000406D01*
X010131Y000463D01*
X010358Y000463D02*
X010358Y000690D01*
X010301Y000746D01*
X010188Y000746D01*
X010131Y000690D01*
X010138Y000906D02*
X010364Y000906D01*
X010138Y001133D01*
X010138Y001190D01*
X010194Y001246D01*
X010308Y001246D01*
X010364Y001190D01*
X010506Y001190D02*
X010563Y001246D01*
X010676Y001246D01*
X010733Y001190D01*
X010733Y000963D01*
X010676Y000906D01*
X010563Y000906D01*
X010506Y000963D01*
X010613Y000746D02*
X010613Y000406D01*
X010726Y000406D02*
X010499Y000406D01*
X010726Y000633D02*
X010613Y000746D01*
X010621Y007431D02*
X010394Y007771D01*
X010253Y007658D02*
X010139Y007771D01*
X010139Y007431D01*
X010026Y007431D02*
X010253Y007431D01*
X010394Y007431D02*
X010621Y007771D01*
X009371Y007771D02*
X009258Y007771D01*
X009314Y007771D02*
X009314Y007431D01*
X009258Y007431D02*
X009371Y007431D01*
X009126Y007431D02*
X008899Y007658D01*
X008899Y007715D01*
X008956Y007771D01*
X009069Y007771D01*
X009126Y007715D01*
X009133Y007931D02*
X009133Y008271D01*
X009246Y008158D01*
X009246Y007931D02*
X009019Y007931D01*
X008878Y007988D02*
X008651Y008215D01*
X008651Y007988D01*
X008708Y007931D01*
X008821Y007931D01*
X008878Y007988D01*
X008878Y008215D01*
X008821Y008271D01*
X008708Y008271D01*
X008651Y008215D01*
X008510Y008215D02*
X008453Y008271D01*
X008339Y008271D01*
X008283Y008215D01*
X008510Y007988D01*
X008453Y007931D01*
X008339Y007931D01*
X008283Y007988D01*
X008283Y008215D01*
X008141Y008158D02*
X007971Y008158D01*
X007914Y008101D01*
X007914Y007931D01*
X008141Y007931D02*
X008141Y008158D01*
X008510Y008215D02*
X008510Y007988D01*
X008587Y007771D02*
X008701Y007771D01*
X008757Y007715D01*
X008757Y007488D01*
X008701Y007431D01*
X008587Y007431D01*
X008531Y007488D01*
X008531Y007715D02*
X008587Y007771D01*
X008899Y007431D02*
X009126Y007431D01*
X009076Y008431D02*
X009019Y008488D01*
X009076Y008431D02*
X009189Y008431D01*
X009246Y008488D01*
X009246Y008715D01*
X009189Y008771D01*
X009076Y008771D01*
X009019Y008715D01*
X008878Y008658D02*
X008764Y008771D01*
X008764Y008431D01*
X008651Y008431D02*
X008878Y008431D01*
D14*
X008401Y007151D02*
X008401Y003151D01*
X010151Y003151D01*
X010151Y007151D01*
X008401Y007151D01*
X010151Y007151D02*
X010901Y007151D01*
X010901Y003151D01*
X010151Y003151D01*
X003809Y003222D02*
X002962Y003222D01*
X002962Y002986D01*
X002962Y002317D02*
X002962Y002080D01*
X003809Y002080D01*
D15*
X008824Y001817D02*
X008824Y001324D01*
X010045Y001324D01*
X010478Y001757D01*
X010340Y002486D02*
X010314Y002534D01*
X010285Y002581D01*
X010252Y002626D01*
X010216Y002668D01*
X010177Y002707D01*
X010136Y002744D01*
X010092Y002777D01*
X010046Y002808D01*
X009997Y002834D01*
X009947Y002857D01*
X009895Y002877D01*
X009842Y002893D01*
X009788Y002905D01*
X009734Y002913D01*
X009679Y002917D01*
X009623Y002917D01*
X009568Y002913D01*
X009514Y002905D01*
X009460Y002893D01*
X009407Y002877D01*
X009355Y002857D01*
X009305Y002834D01*
X009256Y002808D01*
X009210Y002777D01*
X009166Y002744D01*
X009125Y002707D01*
X009086Y002668D01*
X009050Y002626D01*
X009017Y002581D01*
X008988Y002534D01*
X008962Y002486D01*
X008824Y002486D02*
X008824Y002978D01*
X010045Y002978D01*
X010478Y002545D01*
X010340Y001816D02*
X010314Y001768D01*
X010285Y001721D01*
X010252Y001676D01*
X010216Y001634D01*
X010177Y001595D01*
X010136Y001558D01*
X010092Y001525D01*
X010046Y001494D01*
X009997Y001468D01*
X009947Y001445D01*
X009895Y001425D01*
X009842Y001409D01*
X009788Y001397D01*
X009734Y001389D01*
X009679Y001385D01*
X009623Y001385D01*
X009568Y001389D01*
X009514Y001397D01*
X009460Y001409D01*
X009407Y001425D01*
X009355Y001445D01*
X009305Y001468D01*
X009256Y001494D01*
X009210Y001525D01*
X009166Y001558D01*
X009125Y001595D01*
X009086Y001634D01*
X009050Y001676D01*
X009017Y001721D01*
X008988Y001768D01*
X008962Y001816D01*
M02*
