%
M48
M72
T01C0.0197
T02C0.0394
T03C0.0400
%
T01
X5651Y2651
X6651Y2651
X7651Y2651
X8276Y6401
X6901Y6526
X6901Y7026
X6151Y6901
X6151Y8151
X2401Y8651
T02
X9651Y6651
X9651Y5651
X9651Y4651
X9651Y3651
T03
X651Y651
X1651Y651
X1651Y1651
X651Y1651
X651Y2651
X1651Y2651
X1651Y3651
X651Y3651
X651Y4651
X1651Y4651
X1651Y5651
X651Y5651
X651Y6651
X1651Y6651
X1651Y7651
X651Y7651
X651Y8651
X1651Y8651
M30
