G75*
G70*
%OFA0B0*%
%FSLAX24Y24*%
%IPPOS*%
%LPD*%
%AMOC8*
5,1,8,0,0,1.08239X$1,22.5*
%
%ADD10C,0.0000*%
%ADD11R,0.0591X0.0157*%
%ADD12R,0.0551X0.0394*%
%ADD13R,0.0433X0.0394*%
%ADD14R,0.0394X0.0433*%
%ADD15R,0.0630X0.0460*%
%ADD16C,0.0594*%
%ADD17R,0.0866X0.0551*%
%ADD18R,0.0630X0.0591*%
%ADD19R,0.0472X0.0472*%
%ADD20OC8,0.0600*%
%ADD21C,0.0100*%
%ADD22C,0.0357*%
D10*
X000151Y000151D02*
X000151Y009151D01*
X011151Y009151D01*
X011151Y000151D01*
X000151Y000151D01*
D11*
X004724Y005000D03*
X004724Y005256D03*
X004724Y005511D03*
X004724Y005767D03*
X004724Y006023D03*
X004724Y006279D03*
X004724Y006535D03*
X004724Y006791D03*
X004724Y007047D03*
X004724Y007303D03*
X007578Y007303D03*
X007578Y007047D03*
X007578Y006791D03*
X007578Y006535D03*
X007578Y006279D03*
X007578Y006023D03*
X007578Y005767D03*
X007578Y005511D03*
X007578Y005256D03*
X007578Y005000D03*
D12*
X004084Y007777D03*
X004084Y008525D03*
X003218Y008151D03*
D13*
X006817Y008151D03*
X007486Y008151D03*
X007651Y001986D03*
X007651Y001317D03*
X006651Y001317D03*
X006651Y001986D03*
X005651Y001986D03*
X005651Y001317D03*
D14*
X005486Y008151D03*
X004817Y008151D03*
D15*
X005651Y003951D03*
X005651Y003351D03*
X006651Y003351D03*
X006651Y003951D03*
X007651Y003951D03*
X007651Y003351D03*
D16*
X009354Y003651D02*
X009948Y003651D01*
X009948Y004651D02*
X009354Y004651D01*
X009354Y005651D02*
X009948Y005651D01*
X009948Y006651D02*
X009354Y006651D01*
D17*
X009021Y002151D03*
X010281Y002151D03*
D18*
X003061Y002651D03*
D19*
X004370Y002257D03*
X004370Y003045D03*
D20*
X001651Y002651D03*
X000651Y002651D03*
X000651Y001651D03*
X001651Y001651D03*
X001651Y000651D03*
X000651Y000651D03*
X000651Y003651D03*
X001651Y003651D03*
X001651Y004651D03*
X000651Y004651D03*
X000651Y005651D03*
X001651Y005651D03*
X001651Y006651D03*
X000651Y006651D03*
X000651Y007651D03*
X001651Y007651D03*
X001651Y008651D03*
X000651Y008651D03*
D21*
X001151Y008151D02*
X000651Y007651D01*
X001151Y008151D02*
X001901Y008151D01*
X003261Y006791D01*
X004724Y006791D01*
X004724Y007047D02*
X006006Y007047D01*
X006151Y006901D01*
X005890Y006726D02*
X005976Y006640D01*
X006090Y006593D01*
X006213Y006593D01*
X006326Y006640D01*
X006346Y006660D01*
X006346Y006101D01*
X006346Y005952D01*
X006346Y004831D01*
X005726Y004831D01*
X005202Y004831D01*
X005096Y004726D01*
X004721Y004351D01*
X004721Y004202D01*
X004721Y003378D01*
X004698Y003401D01*
X004664Y003421D01*
X004626Y003431D01*
X004420Y003431D01*
X004420Y003095D01*
X004320Y003095D01*
X004320Y003431D01*
X004114Y003431D01*
X004076Y003421D01*
X004041Y003401D01*
X004013Y003373D01*
X003994Y003339D01*
X003983Y003301D01*
X003983Y003095D01*
X004320Y003095D01*
X004320Y002995D01*
X004420Y002995D01*
X004420Y002659D01*
X004626Y002659D01*
X004664Y002669D01*
X004698Y002689D01*
X004721Y002712D01*
X004721Y002562D01*
X004660Y002624D01*
X004080Y002624D01*
X004003Y002548D01*
X004003Y002331D01*
X003506Y002331D01*
X003506Y003000D01*
X003429Y003076D01*
X002692Y003076D01*
X002616Y003000D01*
X002616Y002831D01*
X002079Y002831D01*
X001829Y003081D01*
X001473Y003081D01*
X001221Y002829D01*
X001221Y002473D01*
X001363Y002331D01*
X001226Y002331D01*
X001077Y002331D01*
X000827Y002081D01*
X000473Y002081D01*
X000301Y001909D01*
X000301Y002393D01*
X000473Y002221D01*
X000829Y002221D01*
X001081Y002473D01*
X001081Y002827D01*
X001331Y003077D01*
X001331Y003226D01*
X001331Y003335D01*
X001465Y003201D01*
X001601Y003201D01*
X001601Y003601D01*
X001701Y003601D01*
X001701Y003201D01*
X001838Y003201D01*
X002101Y003465D01*
X002101Y003601D01*
X001701Y003601D01*
X001701Y003701D01*
X002101Y003701D01*
X002101Y003838D01*
X001967Y003971D01*
X002226Y003971D01*
X002331Y004077D01*
X002831Y004577D01*
X002831Y004726D01*
X002831Y005077D01*
X003086Y005331D01*
X004299Y005331D01*
X004299Y005123D01*
X004299Y004867D01*
X004375Y004791D01*
X005073Y004791D01*
X005149Y004867D01*
X005149Y005123D01*
X005149Y005379D01*
X005149Y005635D01*
X005149Y005891D01*
X005149Y006147D01*
X005149Y006402D01*
X005149Y006658D01*
X005149Y006867D01*
X005843Y006867D01*
X005843Y006840D01*
X005890Y006726D01*
X005878Y006754D02*
X005149Y006754D01*
X005149Y006852D02*
X005843Y006852D01*
X005961Y006655D02*
X005149Y006655D01*
X005149Y006556D02*
X006346Y006556D01*
X006346Y006458D02*
X005149Y006458D01*
X005149Y006359D02*
X006346Y006359D01*
X006346Y006261D02*
X005149Y006261D01*
X005149Y006162D02*
X006346Y006162D01*
X006346Y006064D02*
X005149Y006064D01*
X005149Y005965D02*
X006346Y005965D01*
X006346Y005867D02*
X005149Y005867D01*
X005149Y005768D02*
X006346Y005768D01*
X006346Y005670D02*
X005149Y005670D01*
X005149Y005571D02*
X006346Y005571D01*
X006346Y005473D02*
X005149Y005473D01*
X005149Y005374D02*
X006346Y005374D01*
X006346Y005275D02*
X005149Y005275D01*
X005149Y005177D02*
X006346Y005177D01*
X006346Y005078D02*
X005149Y005078D01*
X005149Y004980D02*
X006346Y004980D01*
X006346Y004881D02*
X005149Y004881D01*
X005153Y004783D02*
X002831Y004783D01*
X002831Y004881D02*
X004299Y004881D01*
X004299Y004980D02*
X002831Y004980D01*
X002833Y005078D02*
X004299Y005078D01*
X004299Y005177D02*
X002931Y005177D01*
X003030Y005275D02*
X004299Y005275D01*
X004724Y005511D02*
X003011Y005511D01*
X002651Y005151D01*
X002651Y004651D01*
X002151Y004151D01*
X001401Y004151D01*
X001151Y003901D01*
X001151Y003151D01*
X000651Y002651D01*
X000375Y002319D02*
X000301Y002319D01*
X000301Y002221D02*
X000966Y002221D01*
X000927Y002319D02*
X001065Y002319D01*
X001026Y002418D02*
X001277Y002418D01*
X001221Y002516D02*
X001081Y002516D01*
X001081Y002615D02*
X001221Y002615D01*
X001221Y002713D02*
X001081Y002713D01*
X001081Y002812D02*
X001221Y002812D01*
X001165Y002910D02*
X001302Y002910D01*
X001263Y003009D02*
X001401Y003009D01*
X001331Y003107D02*
X003983Y003107D01*
X003983Y003206D02*
X001842Y003206D01*
X001941Y003305D02*
X003984Y003305D01*
X004045Y003403D02*
X002039Y003403D01*
X002101Y003502D02*
X004721Y003502D01*
X004721Y003600D02*
X002101Y003600D01*
X002101Y003797D02*
X004721Y003797D01*
X004721Y003699D02*
X001701Y003699D01*
X001701Y003600D02*
X001601Y003600D01*
X001601Y003502D02*
X001701Y003502D01*
X001701Y003403D02*
X001601Y003403D01*
X001601Y003305D02*
X001701Y003305D01*
X001701Y003206D02*
X001601Y003206D01*
X001460Y003206D02*
X001331Y003206D01*
X001331Y003305D02*
X001361Y003305D01*
X001901Y003009D02*
X002624Y003009D01*
X002616Y002910D02*
X002000Y002910D01*
X001651Y002651D02*
X003061Y002651D01*
X003506Y002615D02*
X004071Y002615D01*
X004076Y002669D02*
X004114Y002659D01*
X004320Y002659D01*
X004320Y002995D01*
X003983Y002995D01*
X003983Y002789D01*
X003994Y002751D01*
X004013Y002717D01*
X004041Y002689D01*
X004076Y002669D01*
X004017Y002713D02*
X003506Y002713D01*
X003506Y002812D02*
X003983Y002812D01*
X003983Y002910D02*
X003506Y002910D01*
X003497Y003009D02*
X004320Y003009D01*
X004320Y003107D02*
X004420Y003107D01*
X004420Y003206D02*
X004320Y003206D01*
X004320Y003305D02*
X004420Y003305D01*
X004420Y003403D02*
X004320Y003403D01*
X004695Y003403D02*
X004721Y003403D01*
X005081Y003403D02*
X005206Y003403D01*
X005206Y003305D02*
X005081Y003305D01*
X005081Y003206D02*
X005206Y003206D01*
X005206Y003107D02*
X005081Y003107D01*
X005081Y003009D02*
X005265Y003009D01*
X005282Y002991D02*
X005471Y002991D01*
X005471Y002907D01*
X005390Y002826D01*
X005343Y002713D01*
X005081Y002713D01*
X005081Y002615D02*
X005343Y002615D01*
X005343Y002590D02*
X005390Y002476D01*
X005471Y002395D01*
X005471Y002313D01*
X005381Y002313D01*
X005305Y002236D01*
X005305Y001735D01*
X005381Y001659D01*
X005399Y001659D01*
X005377Y001653D01*
X005343Y001633D01*
X005315Y001605D01*
X005295Y001571D01*
X005285Y001533D01*
X005285Y001365D01*
X005602Y001365D01*
X005602Y001268D01*
X005285Y001268D01*
X005285Y001100D01*
X005295Y001062D01*
X005315Y001028D01*
X005343Y001000D01*
X005377Y000980D01*
X005415Y000970D01*
X005603Y000970D01*
X005603Y001268D01*
X005700Y001268D01*
X005700Y001365D01*
X006018Y001365D01*
X006018Y001533D01*
X006007Y001571D01*
X005988Y001605D01*
X005960Y001633D01*
X005926Y001653D01*
X005904Y001659D01*
X005922Y001659D01*
X005998Y001735D01*
X005998Y002236D01*
X005922Y002313D01*
X005831Y002313D01*
X005831Y002395D01*
X005913Y002476D01*
X005960Y002590D01*
X005960Y002713D01*
X005913Y002826D01*
X005831Y002907D01*
X005831Y002991D01*
X006020Y002991D01*
X006096Y003067D01*
X006096Y003635D01*
X006080Y003651D01*
X006096Y003667D01*
X006096Y004235D01*
X006020Y004311D01*
X005831Y004311D01*
X005831Y004471D01*
X006452Y004471D01*
X006471Y004471D01*
X006471Y004311D01*
X006282Y004311D01*
X006206Y004235D01*
X006206Y003667D01*
X006222Y003651D01*
X006206Y003635D01*
X006206Y003067D01*
X006282Y002991D01*
X006471Y002991D01*
X006471Y002907D01*
X006390Y002826D01*
X006343Y002713D01*
X005959Y002713D01*
X005960Y002615D02*
X006343Y002615D01*
X006343Y002590D02*
X006390Y002476D01*
X006471Y002395D01*
X006471Y002313D01*
X006381Y002313D01*
X006305Y002236D01*
X006305Y001735D01*
X006381Y001659D01*
X006399Y001659D01*
X006377Y001653D01*
X006343Y001633D01*
X006315Y001605D01*
X006295Y001571D01*
X006285Y001533D01*
X006285Y001365D01*
X006602Y001365D01*
X006602Y001268D01*
X006285Y001268D01*
X006285Y001100D01*
X006295Y001062D01*
X006315Y001028D01*
X006343Y001000D01*
X006377Y000980D01*
X006415Y000970D01*
X006603Y000970D01*
X006603Y001268D01*
X006700Y001268D01*
X006700Y001365D01*
X007018Y001365D01*
X007018Y001533D01*
X007007Y001571D01*
X006988Y001605D01*
X006960Y001633D01*
X006926Y001653D01*
X006904Y001659D01*
X006922Y001659D01*
X006998Y001735D01*
X006998Y002236D01*
X006922Y002313D01*
X006831Y002313D01*
X006831Y002395D01*
X006913Y002476D01*
X006960Y002590D01*
X006960Y002713D01*
X006913Y002826D01*
X006831Y002907D01*
X006831Y002991D01*
X007020Y002991D01*
X007096Y003067D01*
X007096Y003635D01*
X007080Y003651D01*
X007096Y003667D01*
X007096Y004235D01*
X007020Y004311D01*
X006831Y004311D01*
X006831Y004471D01*
X007471Y004471D01*
X007471Y004311D01*
X007282Y004311D01*
X007206Y004235D01*
X007206Y003667D01*
X007222Y003651D01*
X007206Y003635D01*
X007206Y003067D01*
X007282Y002991D01*
X007471Y002991D01*
X007471Y002907D01*
X007390Y002826D01*
X007343Y002713D01*
X006959Y002713D01*
X006960Y002615D02*
X007343Y002615D01*
X007343Y002590D02*
X007390Y002476D01*
X007471Y002395D01*
X007471Y002313D01*
X007381Y002313D01*
X007305Y002236D01*
X007305Y001735D01*
X007381Y001659D01*
X007399Y001659D01*
X007377Y001653D01*
X007343Y001633D01*
X007315Y001605D01*
X007295Y001571D01*
X007285Y001533D01*
X007285Y001365D01*
X007602Y001365D01*
X007602Y001268D01*
X007285Y001268D01*
X007285Y001100D01*
X007295Y001062D01*
X007315Y001028D01*
X007343Y001000D01*
X007377Y000980D01*
X007415Y000970D01*
X007603Y000970D01*
X007603Y001268D01*
X007700Y001268D01*
X007700Y001365D01*
X008018Y001365D01*
X008018Y001533D01*
X008007Y001571D01*
X007988Y001605D01*
X007960Y001633D01*
X007926Y001653D01*
X007904Y001659D01*
X007922Y001659D01*
X007998Y001735D01*
X007998Y002236D01*
X007922Y002313D01*
X007831Y002313D01*
X007831Y002395D01*
X007913Y002476D01*
X007960Y002590D01*
X007960Y002713D01*
X007913Y002826D01*
X007831Y002907D01*
X007831Y002991D01*
X008020Y002991D01*
X008096Y003067D01*
X008096Y003635D01*
X008080Y003651D01*
X008096Y003667D01*
X008096Y004235D01*
X008020Y004311D01*
X007831Y004311D01*
X007831Y004471D01*
X008077Y004471D01*
X008927Y003620D01*
X008927Y003566D01*
X008992Y003409D01*
X009113Y003289D01*
X009269Y003224D01*
X009824Y003224D01*
X010101Y002947D01*
X010101Y002557D01*
X009794Y002557D01*
X009718Y002481D01*
X009718Y001822D01*
X009794Y001746D01*
X010768Y001746D01*
X010844Y001822D01*
X010844Y002481D01*
X010768Y002557D01*
X010461Y002557D01*
X010461Y003096D01*
X010356Y003201D01*
X010356Y003201D01*
X010229Y003328D01*
X010310Y003409D01*
X010375Y003566D01*
X010375Y003736D01*
X010310Y003893D01*
X010190Y004013D01*
X010033Y004078D01*
X009269Y004078D01*
X009113Y004013D01*
X009078Y003979D01*
X008331Y004726D01*
X008226Y004831D01*
X007968Y004831D01*
X008004Y004867D01*
X008004Y005102D01*
X008013Y005119D01*
X008024Y005157D01*
X008024Y005255D01*
X007579Y005255D01*
X007579Y005256D01*
X008024Y005256D01*
X008024Y005354D01*
X008013Y005392D01*
X008004Y005409D01*
X008004Y005644D01*
X008004Y005900D01*
X008004Y006099D01*
X008080Y006099D01*
X008199Y006099D01*
X008215Y006093D01*
X008338Y006093D01*
X008451Y006140D01*
X008538Y006226D01*
X008585Y006340D01*
X008585Y006463D01*
X008581Y006471D01*
X008967Y006471D01*
X008992Y006409D01*
X009113Y006289D01*
X009269Y006224D01*
X010033Y006224D01*
X010190Y006289D01*
X010310Y006409D01*
X010375Y006566D01*
X010375Y006673D01*
X010471Y006577D01*
X010471Y006226D01*
X010224Y005979D01*
X010190Y006013D01*
X010033Y006078D01*
X009269Y006078D01*
X009113Y006013D01*
X008992Y005893D01*
X008927Y005736D01*
X008927Y005566D01*
X008992Y005409D01*
X009113Y005289D01*
X009269Y005224D01*
X010033Y005224D01*
X010190Y005289D01*
X010310Y005409D01*
X010375Y005566D01*
X010375Y005620D01*
X010831Y006077D01*
X010831Y006226D01*
X010831Y006726D01*
X010726Y006831D01*
X010074Y007483D01*
X009925Y007483D01*
X007956Y007483D01*
X007927Y007511D01*
X007229Y007511D01*
X007153Y007435D01*
X007153Y007210D01*
X007076Y007288D01*
X006963Y007335D01*
X006840Y007335D01*
X006839Y007334D01*
X006851Y007346D01*
X006956Y007452D01*
X006956Y007824D01*
X007087Y007824D01*
X007140Y007878D01*
X007149Y007862D01*
X007177Y007834D01*
X007211Y007815D01*
X007250Y007804D01*
X007437Y007804D01*
X007437Y008102D01*
X007534Y008102D01*
X007534Y007804D01*
X007722Y007804D01*
X007760Y007815D01*
X007794Y007834D01*
X007822Y007862D01*
X007842Y007896D01*
X007852Y007935D01*
X007852Y008103D01*
X007534Y008103D01*
X007534Y008200D01*
X007437Y008200D01*
X007437Y008498D01*
X007250Y008498D01*
X007211Y008488D01*
X007177Y008468D01*
X007149Y008440D01*
X007140Y008425D01*
X007087Y008478D01*
X006546Y008478D01*
X006470Y008402D01*
X006470Y007900D01*
X006546Y007824D01*
X006596Y007824D01*
X006596Y007601D01*
X006478Y007483D01*
X006425Y007483D01*
X005102Y007483D01*
X005073Y007511D01*
X004493Y007511D01*
X004500Y007522D01*
X004510Y007561D01*
X004510Y007729D01*
X004133Y007729D01*
X004133Y007826D01*
X004036Y007826D01*
X004036Y008124D01*
X003789Y008124D01*
X003751Y008114D01*
X003717Y008094D01*
X003689Y008066D01*
X003669Y008032D01*
X003659Y007994D01*
X003659Y007826D01*
X004036Y007826D01*
X004036Y007729D01*
X003659Y007729D01*
X003659Y007561D01*
X003669Y007522D01*
X003689Y007488D01*
X003694Y007483D01*
X003324Y007483D01*
X002982Y007824D01*
X003548Y007824D01*
X003624Y007900D01*
X003624Y008402D01*
X003548Y008478D01*
X002889Y008478D01*
X002813Y008402D01*
X002813Y008369D01*
X002675Y008507D01*
X002710Y008590D01*
X002710Y008713D01*
X002663Y008826D01*
X002576Y008913D01*
X002463Y008960D01*
X002340Y008960D01*
X002226Y008913D01*
X002140Y008826D01*
X002093Y008714D01*
X002081Y008726D01*
X002081Y008829D01*
X001909Y009001D01*
X011001Y009001D01*
X011001Y000301D01*
X001909Y000301D01*
X002081Y000473D01*
X002081Y000829D01*
X001829Y001081D01*
X001473Y001081D01*
X001221Y000829D01*
X001221Y000473D01*
X001393Y000301D01*
X000909Y000301D01*
X001081Y000473D01*
X001081Y000829D01*
X000831Y001079D01*
X000831Y001223D01*
X001081Y001473D01*
X001081Y001827D01*
X001226Y001971D01*
X001335Y001971D01*
X001201Y001838D01*
X001201Y001701D01*
X001601Y001701D01*
X001601Y001601D01*
X001701Y001601D01*
X001701Y001201D01*
X001838Y001201D01*
X002101Y001465D01*
X002101Y001601D01*
X001701Y001601D01*
X001701Y001701D01*
X002101Y001701D01*
X002101Y001838D01*
X001967Y001971D01*
X004003Y001971D01*
X004003Y001967D01*
X004080Y001891D01*
X004660Y001891D01*
X004736Y001967D01*
X004736Y002077D01*
X004832Y002077D01*
X004976Y002221D01*
X005081Y002327D01*
X005081Y004202D01*
X005351Y004471D01*
X005471Y004471D01*
X005471Y004311D01*
X005282Y004311D01*
X005206Y004235D01*
X005206Y003667D01*
X005222Y003651D01*
X005206Y003635D01*
X005206Y003067D01*
X005282Y002991D01*
X005471Y002910D02*
X005081Y002910D01*
X005081Y002812D02*
X005384Y002812D01*
X005343Y002713D02*
X005343Y002590D01*
X005373Y002516D02*
X005081Y002516D01*
X005081Y002418D02*
X005449Y002418D01*
X005471Y002319D02*
X005074Y002319D01*
X004975Y002221D02*
X005305Y002221D01*
X005305Y002122D02*
X004877Y002122D01*
X004736Y002024D02*
X005305Y002024D01*
X005305Y001925D02*
X004693Y001925D01*
X004757Y002257D02*
X004370Y002257D01*
X004263Y002151D01*
X001151Y002151D01*
X000651Y001651D01*
X000651Y000651D01*
X000971Y000940D02*
X001331Y000940D01*
X001233Y000841D02*
X001069Y000841D01*
X001081Y000742D02*
X001221Y000742D01*
X001221Y000644D02*
X001081Y000644D01*
X001081Y000545D02*
X001221Y000545D01*
X001247Y000447D02*
X001055Y000447D01*
X000956Y000348D02*
X001346Y000348D01*
X001956Y000348D02*
X011001Y000348D01*
X011001Y000447D02*
X002055Y000447D01*
X002081Y000545D02*
X011001Y000545D01*
X011001Y000644D02*
X002081Y000644D01*
X002081Y000742D02*
X011001Y000742D01*
X011001Y000841D02*
X002069Y000841D01*
X001971Y000940D02*
X011001Y000940D01*
X011001Y001038D02*
X007994Y001038D01*
X007988Y001028D02*
X008007Y001062D01*
X008018Y001100D01*
X008018Y001268D01*
X007700Y001268D01*
X007700Y000970D01*
X007887Y000970D01*
X007926Y000980D01*
X007960Y001000D01*
X007988Y001028D01*
X008018Y001137D02*
X011001Y001137D01*
X011001Y001235D02*
X008018Y001235D01*
X008018Y001432D02*
X011001Y001432D01*
X011001Y001334D02*
X007700Y001334D01*
X007602Y001334D02*
X006700Y001334D01*
X006700Y001268D02*
X007018Y001268D01*
X007018Y001100D01*
X007007Y001062D01*
X006988Y001028D01*
X006960Y001000D01*
X006926Y000980D01*
X006887Y000970D01*
X006700Y000970D01*
X006700Y001268D01*
X006700Y001235D02*
X006603Y001235D01*
X006603Y001137D02*
X006700Y001137D01*
X006700Y001038D02*
X006603Y001038D01*
X006309Y001038D02*
X005994Y001038D01*
X005988Y001028D02*
X006007Y001062D01*
X006018Y001100D01*
X006018Y001268D01*
X005700Y001268D01*
X005700Y000970D01*
X005887Y000970D01*
X005926Y000980D01*
X005960Y001000D01*
X005988Y001028D01*
X006018Y001137D02*
X006285Y001137D01*
X006285Y001235D02*
X006018Y001235D01*
X006018Y001432D02*
X006285Y001432D01*
X006285Y001531D02*
X006018Y001531D01*
X005964Y001629D02*
X006338Y001629D01*
X006312Y001728D02*
X005990Y001728D01*
X005998Y001826D02*
X006305Y001826D01*
X006305Y001925D02*
X005998Y001925D01*
X005998Y002024D02*
X006305Y002024D01*
X006305Y002122D02*
X005998Y002122D01*
X005998Y002221D02*
X006305Y002221D01*
X006471Y002319D02*
X005831Y002319D01*
X005854Y002418D02*
X006449Y002418D01*
X006373Y002516D02*
X005929Y002516D01*
X005918Y002812D02*
X006384Y002812D01*
X006343Y002713D02*
X006343Y002590D01*
X006651Y002651D02*
X006651Y003351D01*
X006206Y003305D02*
X006096Y003305D01*
X006096Y003403D02*
X006206Y003403D01*
X006206Y003502D02*
X006096Y003502D01*
X006096Y003600D02*
X006206Y003600D01*
X006206Y003699D02*
X006096Y003699D01*
X006096Y003797D02*
X006206Y003797D01*
X006206Y003896D02*
X006096Y003896D01*
X006096Y003994D02*
X006206Y003994D01*
X006206Y004093D02*
X006096Y004093D01*
X006096Y004191D02*
X006206Y004191D01*
X006261Y004290D02*
X006041Y004290D01*
X005831Y004389D02*
X006471Y004389D01*
X006526Y004651D02*
X006526Y006026D01*
X006529Y006023D01*
X007578Y006023D01*
X007578Y006279D02*
X008154Y006279D01*
X008276Y006401D01*
X008552Y006261D02*
X009181Y006261D01*
X009042Y006359D02*
X008585Y006359D01*
X008585Y006458D02*
X008972Y006458D01*
X008651Y006651D02*
X009651Y006651D01*
X010121Y006261D02*
X010471Y006261D01*
X010471Y006359D02*
X010260Y006359D01*
X010330Y006458D02*
X010471Y006458D01*
X010471Y006556D02*
X010371Y006556D01*
X010375Y006655D02*
X010393Y006655D01*
X010651Y006651D02*
X010651Y006151D01*
X010151Y005651D01*
X009651Y005651D01*
X010156Y005275D02*
X011001Y005275D01*
X011001Y005177D02*
X008024Y005177D01*
X008024Y005275D02*
X009146Y005275D01*
X009028Y005374D02*
X008018Y005374D01*
X008004Y005473D02*
X008966Y005473D01*
X008927Y005571D02*
X008004Y005571D01*
X008004Y005670D02*
X008927Y005670D01*
X008941Y005768D02*
X008004Y005768D01*
X008004Y005867D02*
X008982Y005867D01*
X009065Y005965D02*
X008004Y005965D01*
X008004Y006064D02*
X009235Y006064D01*
X008651Y006651D02*
X008256Y007047D01*
X007578Y007047D01*
X007578Y006791D02*
X007136Y006791D01*
X006901Y007026D01*
X007117Y007246D02*
X007153Y007246D01*
X007153Y007345D02*
X006849Y007345D01*
X006948Y007443D02*
X007161Y007443D01*
X006956Y007542D02*
X011001Y007542D01*
X011001Y007640D02*
X006956Y007640D01*
X006956Y007739D02*
X011001Y007739D01*
X011001Y007838D02*
X007798Y007838D01*
X007852Y007936D02*
X011001Y007936D01*
X011001Y008035D02*
X007852Y008035D01*
X007852Y008200D02*
X007852Y008368D01*
X007842Y008406D01*
X007822Y008440D01*
X007794Y008468D01*
X007760Y008488D01*
X007722Y008498D01*
X007534Y008498D01*
X007534Y008200D01*
X007852Y008200D01*
X007852Y008232D02*
X011001Y008232D01*
X011001Y008330D02*
X007852Y008330D01*
X007829Y008429D02*
X011001Y008429D01*
X011001Y008527D02*
X004695Y008527D01*
X004725Y008498D02*
X004517Y008705D01*
X004490Y008705D01*
X004490Y008776D01*
X004414Y008852D01*
X003755Y008852D01*
X003679Y008776D01*
X003679Y008274D01*
X003755Y008198D01*
X004414Y008198D01*
X004464Y008249D01*
X004490Y008223D01*
X004490Y008049D01*
X004480Y008066D01*
X004452Y008094D01*
X004418Y008114D01*
X004380Y008124D01*
X004133Y008124D01*
X004133Y007826D01*
X004510Y007826D01*
X004510Y007861D01*
X004566Y007805D01*
X005067Y007805D01*
X005143Y007881D01*
X005143Y008422D01*
X005067Y008498D01*
X004725Y008498D01*
X004596Y008626D02*
X011001Y008626D01*
X011001Y008724D02*
X004490Y008724D01*
X004443Y008823D02*
X011001Y008823D01*
X011001Y008922D02*
X002554Y008922D01*
X002664Y008823D02*
X003726Y008823D01*
X003679Y008724D02*
X002705Y008724D01*
X002710Y008626D02*
X003679Y008626D01*
X003679Y008527D02*
X002684Y008527D01*
X002753Y008429D02*
X002839Y008429D01*
X002776Y008151D02*
X002401Y008526D01*
X002401Y008651D01*
X002248Y008922D02*
X001989Y008922D01*
X002081Y008823D02*
X002139Y008823D01*
X002098Y008724D02*
X002082Y008724D01*
X001901Y008651D02*
X001651Y008651D01*
X001901Y008651D02*
X003250Y007303D01*
X004724Y007303D01*
X006500Y007303D01*
X006526Y007276D01*
X006526Y006026D01*
X006706Y005843D02*
X007153Y005843D01*
X007153Y005644D01*
X007153Y005409D01*
X007143Y005392D01*
X007133Y005354D01*
X007133Y005256D01*
X007578Y005256D01*
X007578Y005255D01*
X007133Y005255D01*
X007133Y005157D01*
X007143Y005119D01*
X007153Y005102D01*
X007153Y004867D01*
X007189Y004831D01*
X006726Y004831D01*
X006706Y004831D01*
X006706Y005843D01*
X006706Y005768D02*
X007153Y005768D01*
X007153Y005670D02*
X006706Y005670D01*
X006706Y005571D02*
X007153Y005571D01*
X007153Y005473D02*
X006706Y005473D01*
X006706Y005374D02*
X007138Y005374D01*
X007133Y005275D02*
X006706Y005275D01*
X006706Y005177D02*
X007133Y005177D01*
X007153Y005078D02*
X006706Y005078D01*
X006706Y004980D02*
X007153Y004980D01*
X007153Y004881D02*
X006706Y004881D01*
X006651Y004651D02*
X006526Y004651D01*
X005651Y004651D01*
X005276Y004651D01*
X004901Y004276D01*
X004901Y002401D01*
X004757Y002257D01*
X004721Y002615D02*
X004669Y002615D01*
X004420Y002713D02*
X004320Y002713D01*
X004320Y002812D02*
X004420Y002812D01*
X004420Y002910D02*
X004320Y002910D01*
X004003Y002516D02*
X003506Y002516D01*
X003506Y002418D02*
X004003Y002418D01*
X004046Y001925D02*
X002014Y001925D01*
X002101Y001826D02*
X005305Y001826D01*
X005312Y001728D02*
X002101Y001728D01*
X002101Y001531D02*
X005285Y001531D01*
X005285Y001432D02*
X002069Y001432D01*
X001970Y001334D02*
X005602Y001334D01*
X005700Y001334D02*
X006602Y001334D01*
X006964Y001629D02*
X007338Y001629D01*
X007312Y001728D02*
X006990Y001728D01*
X006998Y001826D02*
X007305Y001826D01*
X007305Y001925D02*
X006998Y001925D01*
X006998Y002024D02*
X007305Y002024D01*
X007305Y002122D02*
X006998Y002122D01*
X006998Y002221D02*
X007305Y002221D01*
X007471Y002319D02*
X006831Y002319D01*
X006854Y002418D02*
X007449Y002418D01*
X007373Y002516D02*
X006929Y002516D01*
X006918Y002812D02*
X007384Y002812D01*
X007343Y002713D02*
X007343Y002590D01*
X007651Y002651D02*
X007651Y001986D01*
X007998Y002024D02*
X008438Y002024D01*
X008438Y002101D02*
X008438Y001856D01*
X008448Y001818D01*
X008468Y001783D01*
X008496Y001756D01*
X008530Y001736D01*
X008568Y001726D01*
X008971Y001726D01*
X008971Y002101D01*
X008438Y002101D01*
X008438Y002201D02*
X008971Y002201D01*
X008971Y002101D01*
X009071Y002101D01*
X009071Y001726D01*
X009474Y001726D01*
X009512Y001736D01*
X009546Y001756D01*
X009574Y001783D01*
X009594Y001818D01*
X009604Y001856D01*
X009604Y002101D01*
X009071Y002101D01*
X009071Y002201D01*
X008971Y002201D01*
X008971Y002577D01*
X008568Y002577D01*
X008530Y002566D01*
X008496Y002547D01*
X008468Y002519D01*
X008448Y002485D01*
X008438Y002446D01*
X008438Y002201D01*
X008438Y002221D02*
X007998Y002221D01*
X007998Y002122D02*
X008971Y002122D01*
X008971Y002024D02*
X009071Y002024D01*
X009071Y002122D02*
X009718Y002122D01*
X009718Y002024D02*
X009604Y002024D01*
X009604Y001925D02*
X009718Y001925D01*
X009718Y001826D02*
X009596Y001826D01*
X009483Y001728D02*
X011001Y001728D01*
X011001Y001826D02*
X010844Y001826D01*
X010844Y001925D02*
X011001Y001925D01*
X011001Y002024D02*
X010844Y002024D01*
X010844Y002122D02*
X011001Y002122D01*
X011001Y002221D02*
X010844Y002221D01*
X010844Y002319D02*
X011001Y002319D01*
X011001Y002418D02*
X010844Y002418D01*
X010809Y002516D02*
X011001Y002516D01*
X011001Y002615D02*
X010461Y002615D01*
X010461Y002713D02*
X011001Y002713D01*
X011001Y002812D02*
X010461Y002812D01*
X010461Y002910D02*
X011001Y002910D01*
X011001Y003009D02*
X010461Y003009D01*
X010449Y003107D02*
X011001Y003107D01*
X011001Y003206D02*
X010351Y003206D01*
X010252Y003305D02*
X011001Y003305D01*
X011001Y003403D02*
X010304Y003403D01*
X010348Y003502D02*
X011001Y003502D01*
X011001Y003600D02*
X010375Y003600D01*
X010375Y003699D02*
X011001Y003699D01*
X011001Y003797D02*
X010350Y003797D01*
X010307Y003896D02*
X011001Y003896D01*
X011001Y003994D02*
X010208Y003994D01*
X010120Y004237D02*
X010053Y004215D01*
X009983Y004204D01*
X009700Y004204D01*
X009700Y004602D01*
X009603Y004602D01*
X009603Y004204D01*
X009319Y004204D01*
X009250Y004215D01*
X009183Y004237D01*
X009120Y004269D01*
X009063Y004310D01*
X009013Y004360D01*
X008972Y004417D01*
X008940Y004480D01*
X008918Y004546D01*
X008910Y004603D01*
X009602Y004603D01*
X009602Y004700D01*
X008910Y004700D01*
X008918Y004756D01*
X008940Y004823D01*
X008972Y004885D01*
X009013Y004942D01*
X009063Y004992D01*
X009120Y005033D01*
X009183Y005065D01*
X009250Y005087D01*
X009319Y005098D01*
X009603Y005098D01*
X009603Y004700D01*
X009700Y004700D01*
X009700Y005098D01*
X009983Y005098D01*
X010053Y005087D01*
X010120Y005065D01*
X010182Y005033D01*
X010239Y004992D01*
X010289Y004942D01*
X010330Y004885D01*
X010362Y004823D01*
X010384Y004756D01*
X010393Y004700D01*
X009700Y004700D01*
X009700Y004603D01*
X010393Y004603D01*
X010384Y004546D01*
X010362Y004480D01*
X010330Y004417D01*
X010289Y004360D01*
X010239Y004310D01*
X010182Y004269D01*
X010120Y004237D01*
X010211Y004290D02*
X011001Y004290D01*
X011001Y004191D02*
X008865Y004191D01*
X008964Y004093D02*
X011001Y004093D01*
X011001Y004389D02*
X010310Y004389D01*
X010365Y004487D02*
X011001Y004487D01*
X011001Y004586D02*
X010390Y004586D01*
X010375Y004783D02*
X011001Y004783D01*
X011001Y004881D02*
X010332Y004881D01*
X010251Y004980D02*
X011001Y004980D01*
X011001Y005078D02*
X010079Y005078D01*
X010274Y005374D02*
X011001Y005374D01*
X011001Y005473D02*
X010336Y005473D01*
X010375Y005571D02*
X011001Y005571D01*
X011001Y005670D02*
X010424Y005670D01*
X010523Y005768D02*
X011001Y005768D01*
X011001Y005867D02*
X010621Y005867D01*
X010720Y005965D02*
X011001Y005965D01*
X011001Y006064D02*
X010818Y006064D01*
X010831Y006162D02*
X011001Y006162D01*
X011001Y006261D02*
X010831Y006261D01*
X010831Y006359D02*
X011001Y006359D01*
X011001Y006458D02*
X010831Y006458D01*
X010831Y006556D02*
X011001Y006556D01*
X011001Y006655D02*
X010831Y006655D01*
X010803Y006754D02*
X011001Y006754D01*
X011001Y006852D02*
X010705Y006852D01*
X010606Y006951D02*
X011001Y006951D01*
X011001Y007049D02*
X010508Y007049D01*
X010409Y007148D02*
X011001Y007148D01*
X011001Y007246D02*
X010311Y007246D01*
X010212Y007345D02*
X011001Y007345D01*
X011001Y007443D02*
X010113Y007443D01*
X010000Y007303D02*
X010651Y006651D01*
X010408Y006162D02*
X008473Y006162D01*
X007578Y006535D02*
X006910Y006535D01*
X006901Y006526D01*
X006346Y006655D02*
X006341Y006655D01*
X006526Y007276D02*
X006776Y007526D01*
X006776Y008111D01*
X006817Y008151D01*
X006817Y008067D01*
X006776Y008026D01*
X006470Y008035D02*
X006437Y008035D01*
X006460Y008090D02*
X006413Y007976D01*
X006326Y007890D01*
X006213Y007843D01*
X006090Y007843D01*
X005976Y007890D01*
X005895Y007971D01*
X005813Y007971D01*
X005813Y007881D01*
X005736Y007805D01*
X005235Y007805D01*
X005159Y007881D01*
X005159Y008422D01*
X005235Y008498D01*
X005736Y008498D01*
X005813Y008422D01*
X005813Y008331D01*
X005895Y008331D01*
X005976Y008413D01*
X006090Y008460D01*
X006213Y008460D01*
X006326Y008413D01*
X006413Y008326D01*
X006460Y008213D01*
X006460Y008090D01*
X006460Y008133D02*
X006470Y008133D01*
X006470Y008232D02*
X006452Y008232D01*
X006470Y008330D02*
X006408Y008330D01*
X006497Y008429D02*
X006287Y008429D01*
X006016Y008429D02*
X005805Y008429D01*
X005486Y008151D02*
X006151Y008151D01*
X005930Y007936D02*
X005813Y007936D01*
X005769Y007838D02*
X006533Y007838D01*
X006470Y007936D02*
X006372Y007936D01*
X006596Y007739D02*
X004133Y007739D01*
X004036Y007739D02*
X003068Y007739D01*
X003166Y007640D02*
X003659Y007640D01*
X003664Y007542D02*
X003265Y007542D01*
X003561Y007838D02*
X003659Y007838D01*
X003659Y007936D02*
X003624Y007936D01*
X003624Y008035D02*
X003671Y008035D01*
X003624Y008133D02*
X004490Y008133D01*
X004481Y008232D02*
X004447Y008232D01*
X004443Y008525D02*
X004084Y008525D01*
X004443Y008525D02*
X004817Y008151D01*
X005143Y008133D02*
X005159Y008133D01*
X005159Y008035D02*
X005143Y008035D01*
X005143Y007936D02*
X005159Y007936D01*
X005202Y007838D02*
X005100Y007838D01*
X005143Y008232D02*
X005159Y008232D01*
X005159Y008330D02*
X005143Y008330D01*
X005136Y008429D02*
X005166Y008429D01*
X004533Y007838D02*
X004510Y007838D01*
X004510Y007640D02*
X006596Y007640D01*
X006537Y007542D02*
X004505Y007542D01*
X004133Y007838D02*
X004036Y007838D01*
X004036Y007936D02*
X004133Y007936D01*
X004133Y008035D02*
X004036Y008035D01*
X003721Y008232D02*
X003624Y008232D01*
X003624Y008330D02*
X003679Y008330D01*
X003679Y008429D02*
X003597Y008429D01*
X003218Y008151D02*
X002776Y008151D01*
X002026Y007651D02*
X001651Y007651D01*
X002026Y007651D02*
X003142Y006535D01*
X004724Y006535D01*
X004724Y006279D02*
X003023Y006279D01*
X002151Y007151D01*
X001151Y007151D01*
X000651Y006651D01*
X001151Y005901D02*
X001401Y006151D01*
X002401Y006151D01*
X002785Y005767D01*
X004724Y005767D01*
X004724Y006023D02*
X002904Y006023D01*
X002276Y006651D01*
X001651Y006651D01*
X001151Y005901D02*
X001151Y004401D01*
X000651Y003901D01*
X000651Y003651D01*
X002043Y003896D02*
X004721Y003896D01*
X004721Y003994D02*
X002249Y003994D01*
X002347Y004093D02*
X004721Y004093D01*
X004721Y004191D02*
X002446Y004191D01*
X002545Y004290D02*
X004721Y004290D01*
X004759Y004389D02*
X002643Y004389D01*
X002742Y004487D02*
X004858Y004487D01*
X004956Y004586D02*
X002831Y004586D01*
X002831Y004684D02*
X005055Y004684D01*
X005268Y004389D02*
X005471Y004389D01*
X005261Y004290D02*
X005170Y004290D01*
X005206Y004191D02*
X005081Y004191D01*
X005081Y004093D02*
X005206Y004093D01*
X005206Y003994D02*
X005081Y003994D01*
X005081Y003896D02*
X005206Y003896D01*
X005206Y003797D02*
X005081Y003797D01*
X005081Y003699D02*
X005206Y003699D01*
X005206Y003600D02*
X005081Y003600D01*
X005081Y003502D02*
X005206Y003502D01*
X005651Y003351D02*
X005651Y002651D01*
X005651Y001986D01*
X005338Y001629D02*
X001701Y001629D01*
X001701Y001531D02*
X001601Y001531D01*
X001601Y001601D02*
X001601Y001201D01*
X001465Y001201D01*
X001201Y001465D01*
X001201Y001601D01*
X001601Y001601D01*
X001601Y001629D02*
X001081Y001629D01*
X001081Y001531D02*
X001201Y001531D01*
X001234Y001432D02*
X001040Y001432D01*
X000942Y001334D02*
X001332Y001334D01*
X001431Y001235D02*
X000843Y001235D01*
X000831Y001137D02*
X005285Y001137D01*
X005285Y001235D02*
X001872Y001235D01*
X001701Y001235D02*
X001601Y001235D01*
X001601Y001334D02*
X001701Y001334D01*
X001701Y001432D02*
X001601Y001432D01*
X001430Y001038D02*
X000872Y001038D01*
X001081Y001728D02*
X001201Y001728D01*
X001201Y001826D02*
X001081Y001826D01*
X001179Y001925D02*
X001289Y001925D01*
X000868Y002122D02*
X000301Y002122D01*
X000301Y002024D02*
X000415Y002024D01*
X000317Y001925D02*
X000301Y001925D01*
X001872Y001038D02*
X005309Y001038D01*
X005603Y001038D02*
X005700Y001038D01*
X005700Y001137D02*
X005603Y001137D01*
X005603Y001235D02*
X005700Y001235D01*
X006651Y001986D02*
X006651Y002651D01*
X006471Y002910D02*
X005831Y002910D01*
X006038Y003009D02*
X006265Y003009D01*
X006206Y003107D02*
X006096Y003107D01*
X006096Y003206D02*
X006206Y003206D01*
X006831Y002910D02*
X007471Y002910D01*
X007265Y003009D02*
X007038Y003009D01*
X007096Y003107D02*
X007206Y003107D01*
X007206Y003206D02*
X007096Y003206D01*
X007096Y003305D02*
X007206Y003305D01*
X007206Y003403D02*
X007096Y003403D01*
X007096Y003502D02*
X007206Y003502D01*
X007206Y003600D02*
X007096Y003600D01*
X007096Y003699D02*
X007206Y003699D01*
X007206Y003797D02*
X007096Y003797D01*
X007096Y003896D02*
X007206Y003896D01*
X007206Y003994D02*
X007096Y003994D01*
X007096Y004093D02*
X007206Y004093D01*
X007206Y004191D02*
X007096Y004191D01*
X007041Y004290D02*
X007261Y004290D01*
X007471Y004389D02*
X006831Y004389D01*
X006651Y004651D02*
X006651Y003951D01*
X006651Y004651D02*
X007651Y004651D01*
X008151Y004651D01*
X009151Y003651D01*
X009651Y003651D01*
X010281Y003021D01*
X010281Y002151D01*
X009754Y002516D02*
X009576Y002516D01*
X009574Y002519D02*
X009546Y002547D01*
X009512Y002566D01*
X009474Y002577D01*
X009071Y002577D01*
X009071Y002201D01*
X009604Y002201D01*
X009604Y002446D01*
X009594Y002485D01*
X009574Y002519D01*
X009604Y002418D02*
X009718Y002418D01*
X009718Y002319D02*
X009604Y002319D01*
X009604Y002221D02*
X009718Y002221D01*
X010101Y002615D02*
X007960Y002615D01*
X007959Y002713D02*
X010101Y002713D01*
X010101Y002812D02*
X007918Y002812D01*
X007831Y002910D02*
X010101Y002910D01*
X010039Y003009D02*
X008038Y003009D01*
X008096Y003107D02*
X009940Y003107D01*
X009842Y003206D02*
X008096Y003206D01*
X008096Y003305D02*
X009097Y003305D01*
X008999Y003403D02*
X008096Y003403D01*
X008096Y003502D02*
X008954Y003502D01*
X008927Y003600D02*
X008096Y003600D01*
X008096Y003699D02*
X008849Y003699D01*
X008751Y003797D02*
X008096Y003797D01*
X008096Y003896D02*
X008652Y003896D01*
X008553Y003994D02*
X008096Y003994D01*
X008096Y004093D02*
X008455Y004093D01*
X008356Y004191D02*
X008096Y004191D01*
X008041Y004290D02*
X008258Y004290D01*
X008159Y004389D02*
X007831Y004389D01*
X007651Y004651D02*
X007651Y003951D01*
X007651Y003351D02*
X007651Y002651D01*
X007929Y002516D02*
X008467Y002516D01*
X008438Y002418D02*
X007854Y002418D01*
X007831Y002319D02*
X008438Y002319D01*
X008438Y001925D02*
X007998Y001925D01*
X007998Y001826D02*
X008446Y001826D01*
X008560Y001728D02*
X007990Y001728D01*
X007964Y001629D02*
X011001Y001629D01*
X011001Y001531D02*
X008018Y001531D01*
X007700Y001235D02*
X007603Y001235D01*
X007603Y001137D02*
X007700Y001137D01*
X007700Y001038D02*
X007603Y001038D01*
X007309Y001038D02*
X006994Y001038D01*
X007018Y001137D02*
X007285Y001137D01*
X007285Y001235D02*
X007018Y001235D01*
X007018Y001432D02*
X007285Y001432D01*
X007285Y001531D02*
X007018Y001531D01*
X008971Y001728D02*
X009071Y001728D01*
X009071Y001826D02*
X008971Y001826D01*
X008971Y001925D02*
X009071Y001925D01*
X009071Y002221D02*
X008971Y002221D01*
X008971Y002319D02*
X009071Y002319D01*
X009071Y002418D02*
X008971Y002418D01*
X008971Y002516D02*
X009071Y002516D01*
X009062Y003994D02*
X009094Y003994D01*
X009091Y004290D02*
X008767Y004290D01*
X008668Y004389D02*
X008993Y004389D01*
X008938Y004487D02*
X008570Y004487D01*
X008471Y004586D02*
X008912Y004586D01*
X008927Y004783D02*
X008274Y004783D01*
X008373Y004684D02*
X009602Y004684D01*
X009700Y004684D02*
X011001Y004684D01*
X009700Y004586D02*
X009603Y004586D01*
X009603Y004487D02*
X009700Y004487D01*
X009700Y004389D02*
X009603Y004389D01*
X009603Y004290D02*
X009700Y004290D01*
X009700Y004783D02*
X009603Y004783D01*
X009603Y004881D02*
X009700Y004881D01*
X009700Y004980D02*
X009603Y004980D01*
X009603Y005078D02*
X009700Y005078D01*
X009223Y005078D02*
X008004Y005078D01*
X008004Y004980D02*
X009051Y004980D01*
X008970Y004881D02*
X008004Y004881D01*
X010067Y006064D02*
X010309Y006064D01*
X010000Y007303D02*
X007578Y007303D01*
X007534Y007838D02*
X007437Y007838D01*
X007437Y007936D02*
X007534Y007936D01*
X007534Y008035D02*
X007437Y008035D01*
X007534Y008133D02*
X011001Y008133D01*
X007534Y008232D02*
X007437Y008232D01*
X007437Y008330D02*
X007534Y008330D01*
X007534Y008429D02*
X007437Y008429D01*
X007143Y008429D02*
X007136Y008429D01*
X007100Y007838D02*
X007174Y007838D01*
X005651Y004651D02*
X005651Y003951D01*
D22*
X005651Y002651D03*
X006651Y002651D03*
X007651Y002651D03*
X008276Y006401D03*
X006901Y006526D03*
X006901Y007026D03*
X006151Y006901D03*
X006151Y008151D03*
X002401Y008651D03*
M02*
