G75*
G70*
%OFA0B0*%
%FSLAX24Y24*%
%IPPOS*%
%LPD*%
%AMOC8*
5,1,8,0,0,1.08239X$1,22.5*
%
%ADD10C,0.0000*%
%ADD11C,0.0594*%
%ADD12OC8,0.0600*%
%ADD13C,0.0120*%
%ADD14C,0.0357*%
%ADD15C,0.0100*%
D10*
X000151Y000151D02*
X000151Y009151D01*
X011151Y009151D01*
X011151Y000151D01*
X000151Y000151D01*
D11*
X009354Y003651D02*
X009948Y003651D01*
X009948Y004651D02*
X009354Y004651D01*
X009354Y005651D02*
X009948Y005651D01*
X009948Y006651D02*
X009354Y006651D01*
D12*
X001651Y006651D03*
X000651Y006651D03*
X000651Y005651D03*
X001651Y005651D03*
X001651Y004651D03*
X000651Y004651D03*
X000651Y003651D03*
X001651Y003651D03*
X001651Y002651D03*
X000651Y002651D03*
X000651Y001651D03*
X001651Y001651D03*
X001651Y000651D03*
X000651Y000651D03*
X000651Y007651D03*
X001651Y007651D03*
X001651Y008651D03*
X000651Y008651D03*
D13*
X002721Y001951D02*
X002601Y001831D01*
X002601Y001581D01*
X002721Y001461D01*
X002841Y001461D01*
X002601Y001211D01*
X002841Y001461D02*
X003091Y001461D01*
X003091Y001831D01*
X003091Y001951D01*
X002721Y001951D01*
X003091Y001831D02*
X003211Y001951D01*
X003451Y001951D01*
X003571Y001831D01*
X003581Y001581D02*
X003331Y001581D01*
X003581Y001581D02*
X003581Y001341D01*
X003461Y001211D01*
X003211Y001211D01*
X003091Y001331D01*
X003091Y001211D01*
X003091Y001331D02*
X003091Y001461D01*
X003951Y001211D02*
X004441Y001691D01*
X004441Y001811D01*
X004441Y001821D02*
X004321Y001941D01*
X004081Y001941D01*
X003951Y001811D01*
X003951Y001211D02*
X004441Y001211D01*
X004751Y001331D02*
X004871Y001211D01*
X005111Y001211D01*
X005231Y001331D01*
X005231Y001811D01*
X005111Y001931D01*
X004871Y001931D01*
X004751Y001811D01*
X004751Y001331D01*
X005221Y001811D01*
X005541Y001689D02*
X005784Y001931D01*
X005784Y001924D02*
X005784Y001219D01*
X006024Y001211D02*
X005539Y001211D01*
X006321Y001341D02*
X006451Y001211D01*
X006691Y001211D01*
X006811Y001331D01*
X006811Y001341D02*
X006811Y001461D01*
X006811Y001471D02*
X006701Y001581D01*
X006811Y001691D01*
X006811Y001811D01*
X006811Y001821D02*
X006691Y001941D01*
X006451Y001941D01*
X006321Y001811D01*
X006584Y001581D02*
X006699Y001581D01*
D14*
X006651Y002651D03*
X005651Y002651D03*
X007651Y002651D03*
X008276Y006401D03*
X006901Y006526D03*
X006901Y007026D03*
X006151Y006901D03*
X006151Y008151D03*
X002401Y008651D03*
D15*
X001901Y008151D01*
X001151Y008151D01*
X000651Y008651D01*
X001151Y008151D02*
X001151Y001151D01*
X001651Y000651D01*
X001971Y000940D02*
X011001Y000940D01*
X011001Y001038D02*
X006787Y001038D01*
X006770Y001021D02*
X007001Y001252D01*
X007001Y001392D01*
X007001Y001550D01*
X006970Y001581D01*
X007001Y001612D01*
X007001Y001742D01*
X007001Y001900D01*
X006770Y002131D01*
X006612Y002131D01*
X006372Y002131D01*
X006261Y002020D01*
X006131Y001890D01*
X006131Y001732D01*
X006242Y001621D01*
X006394Y001621D01*
X006394Y001531D01*
X006242Y001531D01*
X005974Y001531D01*
X005974Y001629D02*
X006234Y001629D01*
X006242Y001531D02*
X006131Y001420D01*
X006131Y001372D01*
X006102Y001401D01*
X005974Y001401D01*
X005974Y002002D01*
X005974Y002002D01*
X005974Y002010D01*
X005862Y002121D01*
X005705Y002121D01*
X005421Y001837D01*
X005421Y001890D01*
X005301Y002010D01*
X005190Y002121D01*
X004950Y002121D01*
X004792Y002121D01*
X004672Y002001D01*
X004601Y001930D01*
X004400Y002131D01*
X004242Y002131D01*
X004002Y002131D01*
X003891Y002020D01*
X003761Y001890D01*
X003761Y001732D01*
X003872Y001621D01*
X004030Y001621D01*
X004160Y001751D01*
X004231Y001751D01*
X003874Y001401D01*
X003872Y001401D01*
X003816Y001345D01*
X003773Y001302D01*
X003771Y001345D01*
X003771Y001660D01*
X003720Y001711D01*
X003761Y001752D01*
X003761Y001910D01*
X003530Y002141D01*
X003372Y002141D01*
X003170Y002141D01*
X002800Y002141D01*
X002642Y002141D01*
X002522Y002021D01*
X002411Y001910D01*
X002411Y001660D01*
X002411Y001502D01*
X002516Y001397D01*
X002410Y001286D01*
X002413Y001129D01*
X002526Y001020D01*
X002684Y001023D01*
X002901Y001249D01*
X002901Y001132D01*
X003012Y001021D01*
X003170Y001021D01*
X003290Y001021D01*
X003387Y001021D01*
X003390Y001018D01*
X003465Y001021D01*
X003540Y001021D01*
X003543Y001024D01*
X003547Y001024D01*
X003598Y001079D01*
X003651Y001132D01*
X003651Y001137D01*
X003718Y001209D01*
X003761Y001253D01*
X003761Y001211D01*
X003760Y001134D01*
X003761Y001134D01*
X003761Y001132D01*
X003817Y001076D01*
X003871Y001022D01*
X003872Y001022D01*
X003872Y001021D01*
X003951Y001021D01*
X004028Y001020D01*
X004029Y001021D01*
X004520Y001021D01*
X004631Y001132D01*
X004631Y001183D01*
X004792Y001021D01*
X004950Y001021D01*
X005032Y001021D01*
X005190Y001021D01*
X005310Y001141D01*
X005349Y001180D01*
X005349Y001132D01*
X005460Y001021D01*
X006102Y001021D01*
X006214Y001132D01*
X006214Y001180D01*
X006261Y001132D01*
X006372Y001021D01*
X006612Y001021D01*
X006770Y001021D01*
X006885Y001137D02*
X011001Y001137D01*
X011001Y001235D02*
X006984Y001235D01*
X007001Y001334D02*
X011001Y001334D01*
X011001Y001432D02*
X007001Y001432D01*
X007001Y001531D02*
X011001Y001531D01*
X011001Y001629D02*
X007001Y001629D01*
X007001Y001728D02*
X011001Y001728D01*
X011001Y001826D02*
X007001Y001826D01*
X006976Y001925D02*
X011001Y001925D01*
X011001Y002024D02*
X006878Y002024D01*
X006779Y002122D02*
X011001Y002122D01*
X011001Y002221D02*
X001331Y002221D01*
X001331Y002319D02*
X001375Y002319D01*
X001331Y002363D02*
X001473Y002221D01*
X001829Y002221D01*
X002081Y002473D01*
X002081Y002829D01*
X001829Y003081D01*
X001473Y003081D01*
X001331Y002939D01*
X001331Y003335D01*
X001465Y003201D01*
X001601Y003201D01*
X001601Y003601D01*
X001701Y003601D01*
X001701Y003201D01*
X001838Y003201D01*
X002101Y003465D01*
X002101Y003601D01*
X001701Y003601D01*
X001701Y003701D01*
X001601Y003701D01*
X001601Y004101D01*
X001465Y004101D01*
X001331Y003967D01*
X001331Y004363D01*
X001473Y004221D01*
X001829Y004221D01*
X002081Y004473D01*
X002081Y004829D01*
X001829Y005081D01*
X001473Y005081D01*
X001331Y004939D01*
X001331Y005363D01*
X001473Y005221D01*
X001829Y005221D01*
X002081Y005473D01*
X002081Y005829D01*
X001829Y006081D01*
X001473Y006081D01*
X001331Y005939D01*
X001331Y006363D01*
X001473Y006221D01*
X001829Y006221D01*
X002081Y006473D01*
X002081Y006829D01*
X001829Y007081D01*
X001473Y007081D01*
X001331Y006939D01*
X001331Y007363D01*
X001473Y007221D01*
X001829Y007221D01*
X002081Y007473D01*
X002081Y007829D01*
X001939Y007971D01*
X001976Y007971D01*
X002081Y008077D01*
X002347Y008343D01*
X002463Y008343D01*
X002576Y008390D01*
X002663Y008476D01*
X002710Y008590D01*
X002710Y008713D01*
X002663Y008826D01*
X002576Y008913D01*
X002463Y008960D01*
X002340Y008960D01*
X002226Y008913D01*
X002140Y008826D01*
X002093Y008713D01*
X002093Y008597D01*
X002081Y008586D01*
X002081Y008829D01*
X001909Y009001D01*
X011001Y009001D01*
X011001Y000301D01*
X001909Y000301D01*
X002081Y000473D01*
X002081Y000829D01*
X001829Y001081D01*
X001476Y001081D01*
X001331Y001226D01*
X001331Y001335D01*
X001465Y001201D01*
X001601Y001201D01*
X001601Y001601D01*
X001701Y001601D01*
X001701Y001201D01*
X001838Y001201D01*
X002101Y001465D01*
X002101Y001601D01*
X001701Y001601D01*
X001701Y001701D01*
X001601Y001701D01*
X001601Y002101D01*
X001465Y002101D01*
X001331Y001967D01*
X001331Y002363D01*
X001331Y002122D02*
X002623Y002122D01*
X002525Y002024D02*
X001915Y002024D01*
X001838Y002101D02*
X001701Y002101D01*
X001701Y001701D01*
X002101Y001701D01*
X002101Y001838D01*
X001838Y002101D01*
X001701Y002024D02*
X001601Y002024D01*
X001601Y001925D02*
X001701Y001925D01*
X001701Y001826D02*
X001601Y001826D01*
X001601Y001728D02*
X001701Y001728D01*
X001701Y001629D02*
X002411Y001629D01*
X002411Y001531D02*
X002101Y001531D01*
X002069Y001432D02*
X002481Y001432D01*
X002455Y001334D02*
X001970Y001334D01*
X001872Y001235D02*
X002411Y001235D01*
X002413Y001137D02*
X001420Y001137D01*
X001431Y001235D02*
X001331Y001235D01*
X001331Y001334D02*
X001332Y001334D01*
X001601Y001334D02*
X001701Y001334D01*
X001701Y001432D02*
X001601Y001432D01*
X001601Y001531D02*
X001701Y001531D01*
X001701Y001235D02*
X001601Y001235D01*
X001872Y001038D02*
X002507Y001038D01*
X002698Y001038D02*
X002996Y001038D01*
X002901Y001137D02*
X002793Y001137D01*
X002888Y001235D02*
X002901Y001235D01*
X002411Y001728D02*
X002101Y001728D01*
X002101Y001826D02*
X002411Y001826D01*
X002426Y001925D02*
X002014Y001925D01*
X001927Y002319D02*
X011001Y002319D01*
X011001Y002418D02*
X007854Y002418D01*
X007826Y002390D02*
X007913Y002476D01*
X007960Y002590D01*
X007960Y002713D01*
X007913Y002826D01*
X007831Y002907D01*
X007831Y005702D01*
X008222Y006093D01*
X008338Y006093D01*
X008451Y006140D01*
X008538Y006226D01*
X008585Y006340D01*
X008585Y006463D01*
X008538Y006576D01*
X008451Y006663D01*
X008338Y006710D01*
X008215Y006710D01*
X008101Y006663D01*
X008015Y006576D01*
X007968Y006463D01*
X007968Y006347D01*
X007577Y005956D01*
X007471Y005851D01*
X007471Y002907D01*
X007390Y002826D01*
X007343Y002713D01*
X006959Y002713D01*
X006960Y002713D02*
X006913Y002826D01*
X006831Y002907D01*
X006831Y006202D01*
X006847Y006218D01*
X006963Y006218D01*
X007076Y006265D01*
X007163Y006351D01*
X007210Y006465D01*
X007210Y006588D01*
X007163Y006701D01*
X007087Y006776D01*
X007163Y006851D01*
X007210Y006965D01*
X007210Y007088D01*
X007163Y007201D01*
X007076Y007288D01*
X006963Y007335D01*
X006840Y007335D01*
X006726Y007288D01*
X006640Y007201D01*
X006600Y007104D01*
X006459Y006964D01*
X006413Y007076D01*
X006331Y007157D01*
X006331Y007895D01*
X006413Y007976D01*
X006460Y008090D01*
X006460Y008213D01*
X006413Y008326D01*
X006326Y008413D01*
X006213Y008460D01*
X006090Y008460D01*
X005976Y008413D01*
X005890Y008326D01*
X005843Y008213D01*
X005843Y008090D01*
X005890Y007976D01*
X005971Y007895D01*
X005971Y007157D01*
X005890Y007076D01*
X005843Y006963D01*
X005843Y006840D01*
X005890Y006726D01*
X005976Y006640D01*
X006089Y006593D01*
X005577Y006081D01*
X005471Y005976D01*
X005471Y002907D01*
X005390Y002826D01*
X005343Y002713D01*
X002081Y002713D01*
X002081Y002615D02*
X005343Y002615D01*
X005343Y002590D02*
X005390Y002476D01*
X005476Y002390D01*
X005590Y002343D01*
X005713Y002343D01*
X005826Y002390D01*
X005913Y002476D01*
X005960Y002590D01*
X005960Y002713D01*
X005913Y002826D01*
X005831Y002907D01*
X005831Y005827D01*
X006593Y006589D01*
X006593Y006588D01*
X006593Y006472D01*
X006577Y006456D01*
X006471Y006351D01*
X006471Y002907D01*
X006390Y002826D01*
X006343Y002713D01*
X005959Y002713D01*
X005960Y002615D02*
X006343Y002615D01*
X006343Y002590D02*
X006390Y002476D01*
X006476Y002390D01*
X006590Y002343D01*
X006713Y002343D01*
X006826Y002390D01*
X006913Y002476D01*
X006960Y002590D01*
X006960Y002713D01*
X006960Y002615D02*
X007343Y002615D01*
X007343Y002590D02*
X007390Y002476D01*
X007476Y002390D01*
X007590Y002343D01*
X007713Y002343D01*
X007826Y002390D01*
X007929Y002516D02*
X011001Y002516D01*
X011001Y002615D02*
X007960Y002615D01*
X007959Y002713D02*
X011001Y002713D01*
X011001Y002812D02*
X007918Y002812D01*
X007831Y002910D02*
X011001Y002910D01*
X011001Y003009D02*
X007831Y003009D01*
X007831Y003107D02*
X011001Y003107D01*
X011001Y003206D02*
X007831Y003206D01*
X007831Y003305D02*
X009097Y003305D01*
X009113Y003289D02*
X009269Y003224D01*
X010033Y003224D01*
X010190Y003289D01*
X010310Y003409D01*
X010375Y003566D01*
X010375Y003736D01*
X010310Y003893D01*
X010190Y004013D01*
X010033Y004078D01*
X009269Y004078D01*
X009113Y004013D01*
X008992Y003893D01*
X008927Y003736D01*
X008927Y003566D01*
X008992Y003409D01*
X009113Y003289D01*
X008999Y003403D02*
X007831Y003403D01*
X007831Y003502D02*
X008954Y003502D01*
X008927Y003600D02*
X007831Y003600D01*
X007831Y003699D02*
X008927Y003699D01*
X008953Y003797D02*
X007831Y003797D01*
X007831Y003896D02*
X008995Y003896D01*
X009094Y003994D02*
X007831Y003994D01*
X007831Y004093D02*
X011001Y004093D01*
X011001Y004191D02*
X007831Y004191D01*
X007831Y004290D02*
X009091Y004290D01*
X009063Y004310D02*
X009120Y004269D01*
X009183Y004237D01*
X009250Y004215D01*
X009319Y004204D01*
X009603Y004204D01*
X009603Y004602D01*
X009700Y004602D01*
X009700Y004204D01*
X009983Y004204D01*
X010053Y004215D01*
X010120Y004237D01*
X010182Y004269D01*
X010239Y004310D01*
X010289Y004360D01*
X010330Y004417D01*
X010362Y004480D01*
X010384Y004546D01*
X010393Y004603D01*
X009700Y004603D01*
X009700Y004700D01*
X009603Y004700D01*
X009603Y005098D01*
X009319Y005098D01*
X009250Y005087D01*
X009183Y005065D01*
X009120Y005033D01*
X009063Y004992D01*
X009013Y004942D01*
X008972Y004885D01*
X008940Y004823D01*
X008918Y004756D01*
X008910Y004700D01*
X009602Y004700D01*
X009602Y004603D01*
X008910Y004603D01*
X008918Y004546D01*
X008940Y004480D01*
X008972Y004417D01*
X009013Y004360D01*
X009063Y004310D01*
X008993Y004389D02*
X007831Y004389D01*
X007831Y004487D02*
X008938Y004487D01*
X008912Y004586D02*
X007831Y004586D01*
X007831Y004684D02*
X009602Y004684D01*
X009700Y004684D02*
X011001Y004684D01*
X011001Y004586D02*
X010390Y004586D01*
X010365Y004487D02*
X011001Y004487D01*
X011001Y004389D02*
X010310Y004389D01*
X010211Y004290D02*
X011001Y004290D01*
X011001Y003994D02*
X010208Y003994D01*
X010307Y003896D02*
X011001Y003896D01*
X011001Y003797D02*
X010350Y003797D01*
X010375Y003699D02*
X011001Y003699D01*
X011001Y003600D02*
X010375Y003600D01*
X010348Y003502D02*
X011001Y003502D01*
X011001Y003403D02*
X010304Y003403D01*
X010205Y003305D02*
X011001Y003305D01*
X009700Y004290D02*
X009603Y004290D01*
X009603Y004389D02*
X009700Y004389D01*
X009700Y004487D02*
X009603Y004487D01*
X009603Y004586D02*
X009700Y004586D01*
X009700Y004700D02*
X010393Y004700D01*
X010384Y004756D01*
X010362Y004823D01*
X010330Y004885D01*
X010289Y004942D01*
X010239Y004992D01*
X010182Y005033D01*
X010120Y005065D01*
X010053Y005087D01*
X009983Y005098D01*
X009700Y005098D01*
X009700Y004700D01*
X009700Y004783D02*
X009603Y004783D01*
X009603Y004881D02*
X009700Y004881D01*
X009700Y004980D02*
X009603Y004980D01*
X009603Y005078D02*
X009700Y005078D01*
X010033Y005224D02*
X010190Y005289D01*
X010310Y005409D01*
X010375Y005566D01*
X010375Y005736D01*
X010310Y005893D01*
X010190Y006013D01*
X010033Y006078D01*
X009269Y006078D01*
X009113Y006013D01*
X008992Y005893D01*
X008927Y005736D01*
X008927Y005566D01*
X008992Y005409D01*
X009113Y005289D01*
X009269Y005224D01*
X010033Y005224D01*
X010156Y005275D02*
X011001Y005275D01*
X011001Y005177D02*
X007831Y005177D01*
X007831Y005275D02*
X009146Y005275D01*
X009028Y005374D02*
X007831Y005374D01*
X007831Y005473D02*
X008966Y005473D01*
X008927Y005571D02*
X007831Y005571D01*
X007831Y005670D02*
X008927Y005670D01*
X008941Y005768D02*
X007898Y005768D01*
X007996Y005867D02*
X008982Y005867D01*
X009065Y005965D02*
X008095Y005965D01*
X008193Y006064D02*
X009235Y006064D01*
X009269Y006224D02*
X010033Y006224D01*
X010190Y006289D01*
X010310Y006409D01*
X010375Y006566D01*
X010375Y006736D01*
X010310Y006893D01*
X010190Y007013D01*
X010033Y007078D01*
X009269Y007078D01*
X009113Y007013D01*
X008992Y006893D01*
X008927Y006736D01*
X008927Y006566D01*
X008992Y006409D01*
X009113Y006289D01*
X009269Y006224D01*
X009181Y006261D02*
X008552Y006261D01*
X008585Y006359D02*
X009042Y006359D01*
X008972Y006458D02*
X008585Y006458D01*
X008546Y006556D02*
X008931Y006556D01*
X008927Y006655D02*
X008458Y006655D01*
X008276Y006401D02*
X007651Y005776D01*
X007651Y002651D01*
X007373Y002516D02*
X006929Y002516D01*
X006854Y002418D02*
X007449Y002418D01*
X007343Y002590D02*
X007343Y002713D01*
X007384Y002812D02*
X006918Y002812D01*
X006831Y002910D02*
X007471Y002910D01*
X007471Y003009D02*
X006831Y003009D01*
X006831Y003107D02*
X007471Y003107D01*
X007471Y003206D02*
X006831Y003206D01*
X006831Y003305D02*
X007471Y003305D01*
X007471Y003403D02*
X006831Y003403D01*
X006831Y003502D02*
X007471Y003502D01*
X007471Y003600D02*
X006831Y003600D01*
X006831Y003699D02*
X007471Y003699D01*
X007471Y003797D02*
X006831Y003797D01*
X006831Y003896D02*
X007471Y003896D01*
X007471Y003994D02*
X006831Y003994D01*
X006831Y004093D02*
X007471Y004093D01*
X007471Y004191D02*
X006831Y004191D01*
X006831Y004290D02*
X007471Y004290D01*
X007471Y004389D02*
X006831Y004389D01*
X006831Y004487D02*
X007471Y004487D01*
X007471Y004586D02*
X006831Y004586D01*
X006831Y004684D02*
X007471Y004684D01*
X007471Y004783D02*
X006831Y004783D01*
X006831Y004881D02*
X007471Y004881D01*
X007471Y004980D02*
X006831Y004980D01*
X006831Y005078D02*
X007471Y005078D01*
X007471Y005177D02*
X006831Y005177D01*
X006831Y005275D02*
X007471Y005275D01*
X007471Y005374D02*
X006831Y005374D01*
X006831Y005473D02*
X007471Y005473D01*
X007471Y005571D02*
X006831Y005571D01*
X006831Y005670D02*
X007471Y005670D01*
X007471Y005768D02*
X006831Y005768D01*
X006831Y005867D02*
X007487Y005867D01*
X007586Y005965D02*
X006831Y005965D01*
X006831Y006064D02*
X007684Y006064D01*
X007783Y006162D02*
X006831Y006162D01*
X006651Y006276D02*
X006651Y002651D01*
X006373Y002516D02*
X005929Y002516D01*
X005854Y002418D02*
X006449Y002418D01*
X006343Y002590D02*
X006343Y002713D01*
X006384Y002812D02*
X005918Y002812D01*
X005831Y002910D02*
X006471Y002910D01*
X006471Y003009D02*
X005831Y003009D01*
X005831Y003107D02*
X006471Y003107D01*
X006471Y003206D02*
X005831Y003206D01*
X005831Y003305D02*
X006471Y003305D01*
X006471Y003403D02*
X005831Y003403D01*
X005831Y003502D02*
X006471Y003502D01*
X006471Y003600D02*
X005831Y003600D01*
X005831Y003699D02*
X006471Y003699D01*
X006471Y003797D02*
X005831Y003797D01*
X005831Y003896D02*
X006471Y003896D01*
X006471Y003994D02*
X005831Y003994D01*
X005831Y004093D02*
X006471Y004093D01*
X006471Y004191D02*
X005831Y004191D01*
X005831Y004290D02*
X006471Y004290D01*
X006471Y004389D02*
X005831Y004389D01*
X005831Y004487D02*
X006471Y004487D01*
X006471Y004586D02*
X005831Y004586D01*
X005831Y004684D02*
X006471Y004684D01*
X006471Y004783D02*
X005831Y004783D01*
X005831Y004881D02*
X006471Y004881D01*
X006471Y004980D02*
X005831Y004980D01*
X005831Y005078D02*
X006471Y005078D01*
X006471Y005177D02*
X005831Y005177D01*
X005831Y005275D02*
X006471Y005275D01*
X006471Y005374D02*
X005831Y005374D01*
X005831Y005473D02*
X006471Y005473D01*
X006471Y005571D02*
X005831Y005571D01*
X005831Y005670D02*
X006471Y005670D01*
X006471Y005768D02*
X005831Y005768D01*
X005871Y005867D02*
X006471Y005867D01*
X006471Y005965D02*
X005970Y005965D01*
X006068Y006064D02*
X006471Y006064D01*
X006471Y006162D02*
X006167Y006162D01*
X006265Y006261D02*
X006471Y006261D01*
X006480Y006359D02*
X006364Y006359D01*
X006462Y006458D02*
X006578Y006458D01*
X006561Y006556D02*
X006593Y006556D01*
X006651Y006276D02*
X006901Y006526D01*
X007182Y006655D02*
X008094Y006655D01*
X008007Y006556D02*
X007210Y006556D01*
X007207Y006458D02*
X007968Y006458D01*
X007968Y006359D02*
X007166Y006359D01*
X007067Y006261D02*
X007881Y006261D01*
X008473Y006162D02*
X011001Y006162D01*
X011001Y006064D02*
X010067Y006064D01*
X010238Y005965D02*
X011001Y005965D01*
X011001Y005867D02*
X010321Y005867D01*
X010362Y005768D02*
X011001Y005768D01*
X011001Y005670D02*
X010375Y005670D01*
X010375Y005571D02*
X011001Y005571D01*
X011001Y005473D02*
X010336Y005473D01*
X010274Y005374D02*
X011001Y005374D01*
X011001Y005078D02*
X010079Y005078D01*
X010251Y004980D02*
X011001Y004980D01*
X011001Y004881D02*
X010332Y004881D01*
X010375Y004783D02*
X011001Y004783D01*
X011001Y006261D02*
X010121Y006261D01*
X010260Y006359D02*
X011001Y006359D01*
X011001Y006458D02*
X010330Y006458D01*
X010371Y006556D02*
X011001Y006556D01*
X011001Y006655D02*
X010375Y006655D01*
X010368Y006754D02*
X011001Y006754D01*
X011001Y006852D02*
X010327Y006852D01*
X010252Y006951D02*
X011001Y006951D01*
X011001Y007049D02*
X010102Y007049D01*
X009200Y007049D02*
X007210Y007049D01*
X007204Y006951D02*
X009050Y006951D01*
X008976Y006852D02*
X007163Y006852D01*
X007110Y006754D02*
X008935Y006754D01*
X007185Y007148D02*
X011001Y007148D01*
X011001Y007246D02*
X007117Y007246D01*
X006901Y007026D02*
X006776Y007026D01*
X005651Y005901D01*
X005651Y002651D01*
X005373Y002516D02*
X002081Y002516D01*
X002026Y002418D02*
X005449Y002418D01*
X005343Y002590D02*
X005343Y002713D01*
X005384Y002812D02*
X002081Y002812D01*
X002000Y002910D02*
X005471Y002910D01*
X005471Y003009D02*
X001901Y003009D01*
X001842Y003206D02*
X005471Y003206D01*
X005471Y003107D02*
X001331Y003107D01*
X001331Y003009D02*
X001401Y003009D01*
X001460Y003206D02*
X001331Y003206D01*
X001331Y003305D02*
X001361Y003305D01*
X001601Y003305D02*
X001701Y003305D01*
X001701Y003403D02*
X001601Y003403D01*
X001601Y003502D02*
X001701Y003502D01*
X001701Y003600D02*
X001601Y003600D01*
X001701Y003699D02*
X005471Y003699D01*
X005471Y003797D02*
X002101Y003797D01*
X002101Y003838D02*
X002101Y003701D01*
X001701Y003701D01*
X001701Y004101D01*
X001838Y004101D01*
X002101Y003838D01*
X002043Y003896D02*
X005471Y003896D01*
X005471Y003994D02*
X001944Y003994D01*
X001846Y004093D02*
X005471Y004093D01*
X005471Y004191D02*
X001331Y004191D01*
X001331Y004093D02*
X001457Y004093D01*
X001358Y003994D02*
X001331Y003994D01*
X001601Y003994D02*
X001701Y003994D01*
X001701Y003896D02*
X001601Y003896D01*
X001601Y003797D02*
X001701Y003797D01*
X002101Y003600D02*
X005471Y003600D01*
X005471Y003502D02*
X002101Y003502D01*
X002039Y003403D02*
X005471Y003403D01*
X005471Y003305D02*
X001941Y003305D01*
X001701Y003206D02*
X001601Y003206D01*
X001601Y004093D02*
X001701Y004093D01*
X001898Y004290D02*
X005471Y004290D01*
X005471Y004389D02*
X001997Y004389D01*
X002081Y004487D02*
X005471Y004487D01*
X005471Y004586D02*
X002081Y004586D01*
X002081Y004684D02*
X005471Y004684D01*
X005471Y004783D02*
X002081Y004783D01*
X002029Y004881D02*
X005471Y004881D01*
X005471Y004980D02*
X001931Y004980D01*
X001832Y005078D02*
X005471Y005078D01*
X005471Y005177D02*
X001331Y005177D01*
X001331Y005275D02*
X001419Y005275D01*
X001470Y005078D02*
X001331Y005078D01*
X001331Y004980D02*
X001372Y004980D01*
X001884Y005275D02*
X005471Y005275D01*
X005471Y005374D02*
X001982Y005374D01*
X002081Y005473D02*
X005471Y005473D01*
X005471Y005571D02*
X002081Y005571D01*
X002081Y005670D02*
X005471Y005670D01*
X005471Y005768D02*
X002081Y005768D01*
X002044Y005867D02*
X005471Y005867D01*
X005471Y005965D02*
X001945Y005965D01*
X001847Y006064D02*
X005559Y006064D01*
X005658Y006162D02*
X001331Y006162D01*
X001331Y006064D02*
X001456Y006064D01*
X001357Y005965D02*
X001331Y005965D01*
X001331Y006261D02*
X001433Y006261D01*
X001335Y006359D02*
X001331Y006359D01*
X001869Y006261D02*
X005756Y006261D01*
X005855Y006359D02*
X001967Y006359D01*
X002066Y006458D02*
X005953Y006458D01*
X006052Y006556D02*
X002081Y006556D01*
X002081Y006655D02*
X005961Y006655D01*
X005878Y006754D02*
X002081Y006754D01*
X002058Y006852D02*
X005843Y006852D01*
X005843Y006951D02*
X001960Y006951D01*
X001861Y007049D02*
X005879Y007049D01*
X005962Y007148D02*
X001331Y007148D01*
X001331Y007246D02*
X001448Y007246D01*
X001349Y007345D02*
X001331Y007345D01*
X001331Y007049D02*
X001441Y007049D01*
X001343Y006951D02*
X001331Y006951D01*
X001854Y007246D02*
X005971Y007246D01*
X005971Y007345D02*
X001953Y007345D01*
X002051Y007443D02*
X005971Y007443D01*
X005971Y007542D02*
X002081Y007542D01*
X002081Y007640D02*
X005971Y007640D01*
X005971Y007739D02*
X002081Y007739D01*
X002073Y007838D02*
X005971Y007838D01*
X005930Y007936D02*
X001974Y007936D01*
X002039Y008035D02*
X005866Y008035D01*
X005843Y008133D02*
X002138Y008133D01*
X002236Y008232D02*
X005851Y008232D01*
X005894Y008330D02*
X002335Y008330D01*
X002615Y008429D02*
X006016Y008429D01*
X006287Y008429D02*
X011001Y008429D01*
X011001Y008527D02*
X002684Y008527D01*
X002710Y008626D02*
X011001Y008626D01*
X011001Y008724D02*
X002705Y008724D01*
X002664Y008823D02*
X011001Y008823D01*
X011001Y008922D02*
X002554Y008922D01*
X002248Y008922D02*
X001989Y008922D01*
X002081Y008823D02*
X002139Y008823D01*
X002098Y008724D02*
X002081Y008724D01*
X002081Y008626D02*
X002093Y008626D01*
X006151Y008151D02*
X006151Y006901D01*
X006424Y007049D02*
X006545Y007049D01*
X006618Y007148D02*
X006341Y007148D01*
X006331Y007246D02*
X006685Y007246D01*
X006331Y007345D02*
X011001Y007345D01*
X011001Y007443D02*
X006331Y007443D01*
X006331Y007542D02*
X011001Y007542D01*
X011001Y007640D02*
X006331Y007640D01*
X006331Y007739D02*
X011001Y007739D01*
X011001Y007838D02*
X006331Y007838D01*
X006372Y007936D02*
X011001Y007936D01*
X011001Y008035D02*
X006437Y008035D01*
X006460Y008133D02*
X011001Y008133D01*
X011001Y008232D02*
X006452Y008232D01*
X006408Y008330D02*
X011001Y008330D01*
X009223Y005078D02*
X007831Y005078D01*
X007831Y004980D02*
X009051Y004980D01*
X008970Y004881D02*
X007831Y004881D01*
X007831Y004783D02*
X008927Y004783D01*
X006363Y002122D02*
X004409Y002122D01*
X004508Y002024D02*
X004695Y002024D01*
X004207Y001728D02*
X004137Y001728D01*
X004107Y001629D02*
X004038Y001629D01*
X004006Y001531D02*
X003771Y001531D01*
X003771Y001629D02*
X003864Y001629D01*
X003766Y001728D02*
X003737Y001728D01*
X003761Y001826D02*
X003761Y001826D01*
X003746Y001925D02*
X003796Y001925D01*
X003895Y002024D02*
X003648Y002024D01*
X003549Y002122D02*
X003993Y002122D01*
X003905Y001432D02*
X003771Y001432D01*
X003772Y001334D02*
X003805Y001334D01*
X003761Y001235D02*
X003744Y001235D01*
X003760Y001137D02*
X003651Y001137D01*
X003560Y001038D02*
X003855Y001038D01*
X004537Y001038D02*
X004776Y001038D01*
X004677Y001137D02*
X004631Y001137D01*
X005207Y001038D02*
X005443Y001038D01*
X005349Y001137D02*
X005305Y001137D01*
X005974Y001432D02*
X006144Y001432D01*
X006136Y001728D02*
X005974Y001728D01*
X005974Y001826D02*
X006131Y001826D01*
X006166Y001925D02*
X005974Y001925D01*
X005960Y002024D02*
X006265Y002024D01*
X005607Y002024D02*
X005288Y002024D01*
X005386Y001925D02*
X005509Y001925D01*
X006214Y001137D02*
X006257Y001137D01*
X006356Y001038D02*
X006119Y001038D01*
X002081Y000742D02*
X011001Y000742D01*
X011001Y000644D02*
X002081Y000644D01*
X002081Y000545D02*
X011001Y000545D01*
X011001Y000447D02*
X002055Y000447D01*
X001956Y000348D02*
X011001Y000348D01*
X011001Y000841D02*
X002069Y000841D01*
X001387Y002024D02*
X001331Y002024D01*
X001331Y004290D02*
X001404Y004290D01*
M02*
